<svg width="345" height="153" viewBox="0 0 345 153" fill="none" xmlns="http://www.w3.org/2000/svg">
<rect width="345" height="153" fill="#A0E5FF"/>
<path fill-rule="evenodd" clip-rule="evenodd" d="M58.2188 40.739C58.0208 40.739 57.8273 40.6353 57.7191 40.4511L53.5576 33.2449C53.3987 32.9685 53.4931 32.6184 53.7695 32.4596C54.0458 32.3007 54.3959 32.3951 54.5571 32.6714L58.7163 39.8777C58.8752 40.154 58.7808 40.5041 58.5067 40.6653C58.4169 40.7183 58.3155 40.7436 58.2188 40.7413L58.2188 40.739Z" fill="white" fill-opacity="0.2"/>
<path fill-rule="evenodd" clip-rule="evenodd" d="M59.6493 31.8448C59.5779 31.8448 59.5065 31.8471 59.4328 31.8471C57.8644 31.8955 56.0589 32.4666 54.3455 33.4569C52.6321 34.4449 51.2342 35.7254 50.4097 37.0588C49.652 38.2817 49.477 39.3802 49.9237 40.1517C50.8956 41.8352 54.562 41.6118 57.9336 39.6681C59.6446 38.6801 61.0449 37.3996 61.8694 36.0662C62.6271 34.8433 62.7998 33.7448 62.3553 32.9733C61.9316 32.2432 60.9758 31.8448 59.6493 31.8448ZM52.6458 42.434C50.9462 42.434 49.5829 41.8651 48.9242 40.7275C48.2586 39.5737 48.436 38.0537 49.4285 36.4531C50.352 34.9608 51.895 33.5445 53.7674 32.4621C55.642 31.3797 57.641 30.7533 59.3959 30.7003C61.2774 30.6404 62.6823 31.2461 63.3501 32.3999C64.018 33.5537 63.836 35.0737 62.8458 36.6742C61.92 38.1665 60.3793 39.5829 58.5069 40.6653C56.4642 41.8444 54.38 42.434 52.6458 42.434Z" fill="white" fill-opacity="0.2"/>
<path fill-rule="evenodd" clip-rule="evenodd" d="M37.4601 33.9175C36.4813 33.9175 35.5141 34.1754 34.6459 34.6775C33.3378 35.4328 32.4028 36.6512 32.0113 38.1089C31.6221 39.5668 31.8224 41.089 32.5755 42.3971C34.1346 45.0962 37.596 46.0243 40.2953 44.4652C41.6034 43.7098 42.5361 42.4915 42.9275 41.0337C43.3191 39.5759 43.1187 38.0536 42.3633 36.7456C41.6103 35.4374 40.3896 34.5025 38.9319 34.1133C38.4459 33.982 37.9508 33.9175 37.458 33.9175L37.4601 33.9175ZM37.4809 46.372C35.1272 46.372 32.8357 45.1515 31.5758 42.9728C30.6684 41.3999 30.4266 39.5668 30.8964 37.8119C31.3662 36.057 32.4924 34.59 34.0653 33.6803C35.6383 32.7706 37.4737 32.5311 39.2286 33.001C40.9835 33.4708 42.4505 34.5969 43.3602 36.1699C44.2676 37.7428 44.5094 39.576 44.0395 41.3309C43.5697 43.0857 42.4436 44.5527 40.8706 45.4624C39.802 46.0796 38.6346 46.372 37.4809 46.372Z" fill="white" fill-opacity="0.2"/>
<path fill-rule="evenodd" clip-rule="evenodd" d="M32.0783 43.2606C31.8803 43.2606 31.6845 43.1569 31.5786 42.9727C31.4197 42.6963 31.5141 42.3463 31.7905 42.1851L42.5754 35.9581C42.8517 35.7992 43.2018 35.8936 43.363 36.17C43.5219 36.4463 43.4275 36.7964 43.1511 36.9553L32.3662 43.1823C32.2764 43.2352 32.1773 43.2606 32.0806 43.2606L32.0783 43.2606Z" fill="white" fill-opacity="0.2"/>
<path fill-rule="evenodd" clip-rule="evenodd" d="M24.1282 59.6027C24.0775 59.6027 24.0291 59.5958 23.9785 59.582C23.6722 59.5014 23.4902 59.1836 23.5708 58.8773L26.6177 47.5005C26.6983 47.1942 27.0138 47.0122 27.3224 47.0928C27.6287 47.1757 27.8107 47.4912 27.7301 47.7975L24.6832 59.1744C24.6141 59.43 24.3815 59.6004 24.1259 59.6004L24.1282 59.6027Z" fill="white" fill-opacity="0.2"/>
<path fill-rule="evenodd" clip-rule="evenodd" d="M12.3368 49.7711C11.9706 51.1345 12.1617 52.567 12.8734 53.799C13.585 55.0311 14.7296 55.9132 16.0929 56.277L32.4628 60.6619C33.8284 61.0281 35.2563 60.837 36.4907 60.1253C37.7228 59.4137 38.6048 58.2691 38.971 56.9058C39.7287 54.0754 38.0429 51.1575 35.2148 50.3999L18.845 46.0127C16.0146 45.255 13.0967 46.9408 12.3367 49.7689L12.3368 49.7711ZM33.8352 61.9975C33.2779 61.9975 32.716 61.9238 32.1633 61.7764L15.7934 57.3893C14.133 56.9448 12.7397 55.8739 11.8738 54.3746C11.0078 52.8754 10.7753 51.1343 11.222 49.4739C12.1455 46.0309 15.6967 43.9813 19.1399 44.9025L35.5097 49.2896C38.9527 50.2131 41.0023 53.7643 40.0812 57.2075C39.6367 58.8679 38.5658 60.2613 37.0665 61.1271C36.067 61.7052 34.957 62 33.8354 62L33.8352 61.9975Z" fill="white" fill-opacity="0.2"/>
<path fill-rule="evenodd" clip-rule="evenodd" d="M51.4436 49.5406C48.3276 49.5406 45.7921 52.0762 45.7921 55.1921C45.7921 58.3081 48.3277 60.8437 51.4436 60.8437C54.5596 60.8437 57.0951 58.3081 57.0951 55.1921C57.0951 52.0762 54.5595 49.5406 51.4436 49.5406ZM51.4436 61.9952C47.692 61.9952 44.6406 58.9437 44.6406 55.1922C44.6406 51.4407 47.6921 48.3892 51.4436 48.3892C55.1951 48.3892 58.2466 51.4407 58.2466 55.1922C58.2466 58.9437 55.1951 61.9952 51.4436 61.9952Z" fill="white" fill-opacity="0.2"/>
<path fill-rule="evenodd" clip-rule="evenodd" d="M49.9356 61.8112C49.6155 61.8112 49.3599 61.5533 49.3599 61.2355V49.1494C49.3599 48.8316 49.6155 48.5737 49.9356 48.5737C50.2534 48.5737 50.5114 48.8316 50.5114 49.1494V61.2355C50.5114 61.5533 50.2534 61.8112 49.9356 61.8112Z" fill="white" fill-opacity="0.2"/>
<path fill-rule="evenodd" clip-rule="evenodd" d="M52.9547 61.8112C52.6368 61.8112 52.3789 61.5533 52.3789 61.2355V49.1494C52.3789 48.8316 52.6368 48.5737 52.9547 48.5737C53.2725 48.5737 53.5304 48.8316 53.5304 49.1494V61.2355C53.5304 61.5533 53.2725 61.8112 52.9547 61.8112Z" fill="white" fill-opacity="0.2"/>
<path fill-rule="evenodd" clip-rule="evenodd" d="M44.8822 26.9231C44.6289 26.9231 44.3963 26.7527 44.3272 26.4971L41.2803 15.1202C41.1974 14.8139 41.3793 14.4984 41.6856 14.4155C41.9919 14.3326 42.3074 14.5146 42.3903 14.8232L45.4395 26.2C45.5224 26.5063 45.3405 26.8218 45.0319 26.9047C44.9812 26.9185 44.9305 26.9254 44.8822 26.9254L44.8822 26.9231Z" fill="white" fill-opacity="0.2"/>
<path fill-rule="evenodd" clip-rule="evenodd" d="M51.5423 13.1514C51.0887 13.1514 50.6281 13.2113 50.1675 13.3333L33.7976 17.7205C32.4343 18.0867 31.2897 18.9664 30.5781 20.1985C29.8665 21.4306 29.6753 22.863 30.0415 24.2264C30.6771 26.5962 32.8281 28.1645 35.1748 28.1645C35.6285 28.1645 36.0891 28.107 36.5474 27.9826L52.9172 23.5954C54.2829 23.2292 55.4252 22.3495 56.1368 21.1174C56.8484 19.8853 57.0395 18.4529 56.6734 17.0895C56.0401 14.7198 53.8868 13.1514 51.5401 13.1514H51.5423ZM35.1749 29.3161C32.3191 29.3161 29.7006 27.4092 28.929 24.5236C28.4845 22.8608 28.7148 21.1221 29.5808 19.6228C30.4467 18.1235 31.8377 17.0527 33.5004 16.6082L49.8703 12.221C51.5307 11.7765 53.2718 12.0068 54.771 12.8728C56.2703 13.7387 57.3412 15.1297 57.7857 16.7924C58.2301 18.4529 57.9998 20.1939 57.1339 21.6932C56.2679 23.1924 54.877 24.2633 53.2142 24.7078L36.8444 29.095C36.2871 29.2447 35.7252 29.3161 35.1724 29.3161H35.1749Z" fill="white" fill-opacity="0.2"/>
<path fill-rule="evenodd" clip-rule="evenodd" d="M20.0745 27.0063C16.9585 27.0063 14.423 29.5419 14.423 32.6578C14.423 35.7738 16.9586 38.3093 20.0745 38.3093C23.1904 38.3093 25.726 35.7737 25.726 32.6578C25.726 29.5418 23.1904 27.0063 20.0768 27.0063H20.0745ZM20.0745 39.4608C16.3229 39.4608 13.2715 36.4094 13.2715 32.6578C13.2715 28.9063 16.3253 25.8549 20.0745 25.8549C23.826 25.8549 26.8775 28.9063 26.8775 32.6578C26.8775 36.4094 23.826 39.4608 20.0745 39.4608Z" fill="white" fill-opacity="0.2"/>
<path fill-rule="evenodd" clip-rule="evenodd" d="M18.564 39.2739C18.2462 39.2739 17.9883 39.016 17.9883 38.6982V26.6121C17.9883 26.2943 18.2462 26.0364 18.564 26.0364C18.8818 26.0364 19.1398 26.2943 19.1398 26.6121V38.6958C19.1398 39.0136 18.8818 39.2716 18.564 39.2716V39.2739Z" fill="white" fill-opacity="0.2"/>
<path fill-rule="evenodd" clip-rule="evenodd" d="M21.5855 39.2739C21.2677 39.2739 21.0098 39.016 21.0098 38.6982V26.6121C21.0098 26.2943 21.2677 26.0364 21.5855 26.0364C21.9033 26.0364 22.1613 26.2943 22.1613 26.6121V38.6958C22.1613 39.0136 21.9033 39.2716 21.5855 39.2716V39.2739Z" fill="white" fill-opacity="0.2"/>
<path fill-rule="evenodd" clip-rule="evenodd" d="M190.219 40.739C190.021 40.739 189.827 40.6353 189.719 40.4511L185.558 33.2449C185.399 32.9685 185.493 32.6184 185.769 32.4596C186.046 32.3007 186.396 32.3951 186.557 32.6714L190.716 39.8777C190.875 40.154 190.781 40.5041 190.507 40.6653C190.417 40.7183 190.316 40.7436 190.219 40.7413L190.219 40.739Z" fill="white" fill-opacity="0.2"/>
<path fill-rule="evenodd" clip-rule="evenodd" d="M191.649 31.8448C191.578 31.8448 191.506 31.8471 191.433 31.8471C189.864 31.8955 188.059 32.4666 186.345 33.4569C184.632 34.4449 183.234 35.7254 182.41 37.0588C181.652 38.2817 181.477 39.3802 181.924 40.1517C182.896 41.8352 186.562 41.6118 189.934 39.6681C191.645 38.6801 193.045 37.3996 193.869 36.0662C194.627 34.8433 194.8 33.7448 194.355 32.9733C193.932 32.2432 192.976 31.8448 191.649 31.8448ZM184.646 42.434C182.946 42.434 181.583 41.8651 180.924 40.7275C180.259 39.5737 180.436 38.0537 181.429 36.4531C182.352 34.9608 183.895 33.5445 185.767 32.4621C187.642 31.3797 189.641 30.7533 191.396 30.7003C193.277 30.6404 194.682 31.2461 195.35 32.3999C196.018 33.5537 195.836 35.0737 194.846 36.6742C193.92 38.1665 192.379 39.5829 190.507 40.6653C188.464 41.8444 186.38 42.434 184.646 42.434Z" fill="white" fill-opacity="0.2"/>
<path fill-rule="evenodd" clip-rule="evenodd" d="M169.46 33.9175C168.481 33.9175 167.514 34.1754 166.646 34.6775C165.338 35.4328 164.403 36.6512 164.011 38.1089C163.622 39.5668 163.822 41.089 164.575 42.3971C166.135 45.0962 169.596 46.0243 172.295 44.4652C173.603 43.7098 174.536 42.4915 174.928 41.0337C175.319 39.5759 175.119 38.0536 174.363 36.7456C173.61 35.4374 172.39 34.5025 170.932 34.1133C170.446 33.982 169.951 33.9175 169.458 33.9175L169.46 33.9175ZM169.481 46.372C167.127 46.372 164.836 45.1515 163.576 42.9728C162.668 41.3999 162.427 39.5668 162.896 37.8119C163.366 36.057 164.492 34.59 166.065 33.6803C167.638 32.7706 169.474 32.5311 171.229 33.001C172.984 33.4708 174.45 34.5969 175.36 36.1699C176.268 37.7428 176.509 39.576 176.04 41.3309C175.57 43.0857 174.444 44.5527 172.871 45.4624C171.802 46.0796 170.635 46.372 169.481 46.372Z" fill="white" fill-opacity="0.2"/>
<path fill-rule="evenodd" clip-rule="evenodd" d="M164.078 43.2606C163.88 43.2606 163.685 43.1569 163.579 42.9727C163.42 42.6963 163.514 42.3463 163.79 42.1851L174.575 35.9581C174.852 35.7992 175.202 35.8936 175.363 36.17C175.522 36.4463 175.427 36.7964 175.151 36.9553L164.366 43.1823C164.276 43.2352 164.177 43.2606 164.081 43.2606L164.078 43.2606Z" fill="white" fill-opacity="0.2"/>
<path fill-rule="evenodd" clip-rule="evenodd" d="M156.128 59.6027C156.078 59.6027 156.029 59.5958 155.978 59.582C155.672 59.5014 155.49 59.1836 155.571 58.8773L158.618 47.5005C158.698 47.1942 159.014 47.0122 159.322 47.0928C159.629 47.1757 159.811 47.4912 159.73 47.7975L156.683 59.1744C156.614 59.43 156.381 59.6004 156.126 59.6004L156.128 59.6027Z" fill="white" fill-opacity="0.2"/>
<path fill-rule="evenodd" clip-rule="evenodd" d="M144.337 49.7711C143.971 51.1345 144.162 52.567 144.873 53.799C145.585 55.0311 146.73 55.9132 148.093 56.277L164.463 60.6619C165.828 61.0281 167.256 60.837 168.491 60.1253C169.723 59.4137 170.605 58.2691 170.971 56.9058C171.729 54.0754 170.043 51.1575 167.215 50.3999L150.845 46.0127C148.015 45.255 145.097 46.9408 144.337 49.7689L144.337 49.7711ZM165.835 61.9975C165.278 61.9975 164.716 61.9238 164.163 61.7764L147.793 57.3893C146.133 56.9448 144.74 55.8739 143.874 54.3746C143.008 52.8754 142.775 51.1343 143.222 49.4739C144.146 46.0309 147.697 43.9813 151.14 44.9025L167.51 49.2896C170.953 50.2131 173.002 53.7643 172.081 57.2075C171.637 58.8679 170.566 60.2613 169.067 61.1271C168.067 61.7052 166.957 62 165.835 62L165.835 61.9975Z" fill="white" fill-opacity="0.2"/>
<path fill-rule="evenodd" clip-rule="evenodd" d="M183.444 49.5406C180.328 49.5406 177.792 52.0762 177.792 55.1921C177.792 58.3081 180.328 60.8437 183.444 60.8437C186.56 60.8437 189.095 58.3081 189.095 55.1921C189.095 52.0762 186.56 49.5406 183.444 49.5406ZM183.444 61.9952C179.692 61.9952 176.641 58.9437 176.641 55.1922C176.641 51.4407 179.692 48.3892 183.444 48.3892C187.195 48.3892 190.247 51.4407 190.247 55.1922C190.247 58.9437 187.195 61.9952 183.444 61.9952Z" fill="white" fill-opacity="0.2"/>
<path fill-rule="evenodd" clip-rule="evenodd" d="M181.936 61.8112C181.615 61.8112 181.36 61.5533 181.36 61.2355V49.1494C181.36 48.8316 181.615 48.5737 181.936 48.5737C182.253 48.5737 182.511 48.8316 182.511 49.1494V61.2355C182.511 61.5533 182.253 61.8112 181.936 61.8112Z" fill="white" fill-opacity="0.2"/>
<path fill-rule="evenodd" clip-rule="evenodd" d="M184.955 61.8112C184.637 61.8112 184.379 61.5533 184.379 61.2355V49.1494C184.379 48.8316 184.637 48.5737 184.955 48.5737C185.272 48.5737 185.53 48.8316 185.53 49.1494V61.2355C185.53 61.5533 185.272 61.8112 184.955 61.8112Z" fill="white" fill-opacity="0.2"/>
<path fill-rule="evenodd" clip-rule="evenodd" d="M176.882 26.9231C176.629 26.9231 176.396 26.7527 176.327 26.4971L173.28 15.1202C173.197 14.8139 173.379 14.4984 173.686 14.4155C173.992 14.3326 174.307 14.5146 174.39 14.8232L177.439 26.2C177.522 26.5063 177.34 26.8218 177.032 26.9047C176.981 26.9185 176.931 26.9254 176.882 26.9254L176.882 26.9231Z" fill="white" fill-opacity="0.2"/>
<path fill-rule="evenodd" clip-rule="evenodd" d="M183.542 13.1514C183.089 13.1514 182.628 13.2113 182.167 13.3333L165.798 17.7205C164.434 18.0867 163.29 18.9664 162.578 20.1985C161.866 21.4306 161.675 22.863 162.041 24.2264C162.677 26.5962 164.828 28.1645 167.175 28.1645C167.629 28.1645 168.089 28.107 168.547 27.9826L184.917 23.5954C186.283 23.2292 187.425 22.3495 188.137 21.1174C188.848 19.8853 189.04 18.4529 188.673 17.0895C188.04 14.7198 185.887 13.1514 183.54 13.1514H183.542ZM167.175 29.3161C164.319 29.3161 161.701 27.4092 160.929 24.5236C160.485 22.8608 160.715 21.1221 161.581 19.6228C162.447 18.1235 163.838 17.0527 165.5 16.6082L181.87 12.221C183.531 11.7765 185.272 12.0068 186.771 12.8728C188.27 13.7387 189.341 15.1297 189.786 16.7924C190.23 18.4529 190 20.1939 189.134 21.6932C188.268 23.1924 186.877 24.2633 185.214 24.7078L168.844 29.095C168.287 29.2447 167.725 29.3161 167.172 29.3161H167.175Z" fill="white" fill-opacity="0.2"/>
<path fill-rule="evenodd" clip-rule="evenodd" d="M152.074 27.0063C148.959 27.0063 146.423 29.5419 146.423 32.6578C146.423 35.7738 148.959 38.3093 152.074 38.3093C155.19 38.3093 157.726 35.7737 157.726 32.6578C157.726 29.5418 155.19 27.0063 152.077 27.0063H152.074ZM152.074 39.4608C148.323 39.4608 145.271 36.4094 145.271 32.6578C145.271 28.9063 148.325 25.8549 152.074 25.8549C155.826 25.8549 158.877 28.9063 158.877 32.6578C158.877 36.4094 155.826 39.4608 152.074 39.4608Z" fill="white" fill-opacity="0.2"/>
<path fill-rule="evenodd" clip-rule="evenodd" d="M150.564 39.2739C150.246 39.2739 149.988 39.016 149.988 38.6982V26.6121C149.988 26.2943 150.246 26.0364 150.564 26.0364C150.882 26.0364 151.14 26.2943 151.14 26.6121V38.6958C151.14 39.0136 150.882 39.2716 150.564 39.2716V39.2739Z" fill="white" fill-opacity="0.2"/>
<path fill-rule="evenodd" clip-rule="evenodd" d="M153.586 39.2739C153.268 39.2739 153.01 39.016 153.01 38.6982V26.6121C153.01 26.2943 153.268 26.0364 153.586 26.0364C153.903 26.0364 154.161 26.2943 154.161 26.6121V38.6958C154.161 39.0136 153.903 39.2716 153.586 39.2716V39.2739Z" fill="white" fill-opacity="0.2"/>
<path fill-rule="evenodd" clip-rule="evenodd" d="M124.219 83.739C124.021 83.739 123.827 83.6353 123.719 83.4511L119.558 76.2449C119.399 75.9685 119.493 75.6184 119.769 75.4596C120.046 75.3007 120.396 75.3951 120.557 75.6714L124.716 82.8777C124.875 83.154 124.781 83.5041 124.507 83.6653C124.417 83.7183 124.316 83.7436 124.219 83.7413L124.219 83.739Z" fill="white" fill-opacity="0.2"/>
<path fill-rule="evenodd" clip-rule="evenodd" d="M125.649 74.8448C125.578 74.8448 125.506 74.8471 125.433 74.8471C123.864 74.8955 122.059 75.4666 120.345 76.4569C118.632 77.4449 117.234 78.7254 116.41 80.0588C115.652 81.2817 115.477 82.3802 115.924 83.1517C116.896 84.8352 120.562 84.6118 123.934 82.6681C125.645 81.6801 127.045 80.3996 127.869 79.0662C128.627 77.8433 128.8 76.7448 128.355 75.9733C127.932 75.2432 126.976 74.8448 125.649 74.8448ZM118.646 85.434C116.946 85.434 115.583 84.8651 114.924 83.7275C114.259 82.5737 114.436 81.0537 115.429 79.4531C116.352 77.9608 117.895 76.5445 119.767 75.4621C121.642 74.3797 123.641 73.7533 125.396 73.7003C127.277 73.6404 128.682 74.2461 129.35 75.3999C130.018 76.5537 129.836 78.0737 128.846 79.6742C127.92 81.1665 126.379 82.5829 124.507 83.6653C122.464 84.8444 120.38 85.434 118.646 85.434Z" fill="white" fill-opacity="0.2"/>
<path fill-rule="evenodd" clip-rule="evenodd" d="M103.46 76.9175C102.481 76.9175 101.514 77.1754 100.646 77.6775C99.3378 78.4328 98.4028 79.6512 98.0113 81.1089C97.6221 82.5668 97.8224 84.089 98.5755 85.3971C100.135 88.0962 103.596 89.0243 106.295 87.4652C107.603 86.7098 108.536 85.4915 108.928 84.0337C109.319 82.5759 109.119 81.0536 108.363 79.7456C107.61 78.4374 106.39 77.5025 104.932 77.1133C104.446 76.982 103.951 76.9175 103.458 76.9175L103.46 76.9175ZM103.481 89.372C101.127 89.372 98.8357 88.1515 97.5758 85.9728C96.6684 84.3999 96.4266 82.5668 96.8964 80.8119C97.3662 79.057 98.4924 77.59 100.065 76.6803C101.638 75.7706 103.474 75.5311 105.229 76.001C106.984 76.4708 108.45 77.5969 109.36 79.1699C110.268 80.7428 110.509 82.576 110.04 84.3309C109.57 86.0857 108.444 87.5527 106.871 88.4624C105.802 89.0796 104.635 89.372 103.481 89.372Z" fill="white" fill-opacity="0.2"/>
<path fill-rule="evenodd" clip-rule="evenodd" d="M98.0783 86.2606C97.8803 86.2606 97.6845 86.1569 97.5786 85.9727C97.4197 85.6963 97.5141 85.3463 97.7905 85.1851L108.575 78.9581C108.852 78.7992 109.202 78.8936 109.363 79.17C109.522 79.4463 109.427 79.7964 109.151 79.9553L98.3662 86.1823C98.2764 86.2352 98.1773 86.2606 98.0806 86.2606L98.0783 86.2606Z" fill="white" fill-opacity="0.2"/>
<path fill-rule="evenodd" clip-rule="evenodd" d="M90.1282 102.603C90.0775 102.603 90.0291 102.596 89.9785 102.582C89.6722 102.501 89.4902 102.184 89.5708 101.877L92.6177 90.5005C92.6983 90.1942 93.0138 90.0122 93.3224 90.0928C93.6287 90.1757 93.8107 90.4912 93.7301 90.7975L90.6832 102.174C90.6141 102.43 90.3815 102.6 90.1259 102.6L90.1282 102.603Z" fill="white" fill-opacity="0.2"/>
<path fill-rule="evenodd" clip-rule="evenodd" d="M78.3368 92.7711C77.9706 94.1345 78.1617 95.567 78.8734 96.799C79.585 98.0311 80.7296 98.9132 82.0929 99.277L98.4628 103.662C99.8284 104.028 101.256 103.837 102.491 103.125C103.723 102.414 104.605 101.269 104.971 99.9058C105.729 97.0754 104.043 94.1575 101.215 93.3999L84.845 89.0127C82.0146 88.255 79.0967 89.9408 78.3367 92.7689L78.3368 92.7711ZM99.8352 104.998C99.2779 104.998 98.716 104.924 98.1633 104.776L81.7934 100.389C80.133 99.9448 78.7397 98.8739 77.8738 97.3746C77.0078 95.8754 76.7753 94.1343 77.222 92.4739C78.1455 89.0309 81.6967 86.9813 85.1399 87.9025L101.51 92.2896C104.953 93.2131 107.002 96.7643 106.081 100.207C105.637 101.868 104.566 103.261 103.067 104.127C102.067 104.705 100.957 105 99.8354 105L99.8352 104.998Z" fill="white" fill-opacity="0.2"/>
<path fill-rule="evenodd" clip-rule="evenodd" d="M117.444 92.5406C114.328 92.5406 111.792 95.0762 111.792 98.1921C111.792 101.308 114.328 103.844 117.444 103.844C120.56 103.844 123.095 101.308 123.095 98.1921C123.095 95.0762 120.56 92.5406 117.444 92.5406ZM117.444 104.995C113.692 104.995 110.641 101.944 110.641 98.1922C110.641 94.4407 113.692 91.3892 117.444 91.3892C121.195 91.3892 124.247 94.4407 124.247 98.1922C124.247 101.944 121.195 104.995 117.444 104.995Z" fill="white" fill-opacity="0.2"/>
<path fill-rule="evenodd" clip-rule="evenodd" d="M115.936 104.811C115.615 104.811 115.36 104.553 115.36 104.235V92.1494C115.36 91.8316 115.615 91.5737 115.936 91.5737C116.253 91.5737 116.511 91.8316 116.511 92.1494V104.235C116.511 104.553 116.253 104.811 115.936 104.811Z" fill="white" fill-opacity="0.2"/>
<path fill-rule="evenodd" clip-rule="evenodd" d="M118.955 104.811C118.637 104.811 118.379 104.553 118.379 104.235V92.1494C118.379 91.8316 118.637 91.5737 118.955 91.5737C119.272 91.5737 119.53 91.8316 119.53 92.1494V104.235C119.53 104.553 119.272 104.811 118.955 104.811Z" fill="white" fill-opacity="0.2"/>
<path fill-rule="evenodd" clip-rule="evenodd" d="M110.882 69.9231C110.629 69.9231 110.396 69.7527 110.327 69.4971L107.28 58.1202C107.197 57.8139 107.379 57.4984 107.686 57.4155C107.992 57.3326 108.307 57.5146 108.39 57.8232L111.439 69.2C111.522 69.5063 111.34 69.8218 111.032 69.9047C110.981 69.9185 110.931 69.9254 110.882 69.9254L110.882 69.9231Z" fill="white" fill-opacity="0.2"/>
<path fill-rule="evenodd" clip-rule="evenodd" d="M117.542 56.1514C117.089 56.1514 116.628 56.2113 116.167 56.3333L99.7976 60.7205C98.4343 61.0867 97.2897 61.9664 96.5781 63.1985C95.8665 64.4306 95.6753 65.863 96.0415 67.2264C96.6771 69.5962 98.8281 71.1645 101.175 71.1645C101.629 71.1645 102.089 71.107 102.547 70.9826L118.917 66.5954C120.283 66.2292 121.425 65.3495 122.137 64.1174C122.848 62.8853 123.04 61.4529 122.673 60.0895C122.04 57.7198 119.887 56.1514 117.54 56.1514H117.542ZM101.175 72.3161C98.3191 72.3161 95.7006 70.4092 94.929 67.5236C94.4845 65.8608 94.7148 64.1221 95.5808 62.6228C96.4467 61.1235 97.8377 60.0527 99.5004 59.6082L115.87 55.221C117.531 54.7765 119.272 55.0068 120.771 55.8728C122.27 56.7387 123.341 58.1297 123.786 59.7924C124.23 61.4529 124 63.1939 123.134 64.6932C122.268 66.1924 120.877 67.2633 119.214 67.7078L102.844 72.095C102.287 72.2447 101.725 72.3161 101.172 72.3161H101.175Z" fill="white" fill-opacity="0.2"/>
<path fill-rule="evenodd" clip-rule="evenodd" d="M86.0745 70.0063C82.9585 70.0063 80.423 72.5419 80.423 75.6578C80.423 78.7738 82.9586 81.3093 86.0745 81.3093C89.1904 81.3093 91.726 78.7737 91.726 75.6578C91.726 72.5418 89.1904 70.0063 86.0768 70.0063H86.0745ZM86.0745 82.4608C82.3229 82.4608 79.2715 79.4094 79.2715 75.6578C79.2715 71.9063 82.3253 68.8549 86.0745 68.8549C89.826 68.8549 92.8775 71.9063 92.8775 75.6578C92.8775 79.4094 89.826 82.4608 86.0745 82.4608Z" fill="white" fill-opacity="0.2"/>
<path fill-rule="evenodd" clip-rule="evenodd" d="M84.564 82.2739C84.2462 82.2739 83.9883 82.016 83.9883 81.6982V69.6121C83.9883 69.2943 84.2462 69.0364 84.564 69.0364C84.8818 69.0364 85.1398 69.2943 85.1398 69.6121V81.6958C85.1398 82.0136 84.8818 82.2716 84.564 82.2716V82.2739Z" fill="white" fill-opacity="0.2"/>
<path fill-rule="evenodd" clip-rule="evenodd" d="M87.5855 82.2739C87.2677 82.2739 87.0098 82.016 87.0098 81.6982V69.6121C87.0098 69.2943 87.2677 69.0364 87.5855 69.0364C87.9033 69.0364 88.1613 69.2943 88.1613 69.6121V81.6958C88.1613 82.0136 87.9033 82.2716 87.5855 82.2716V82.2739Z" fill="white" fill-opacity="0.2"/>
<path fill-rule="evenodd" clip-rule="evenodd" d="M324.219 40.739C324.021 40.739 323.827 40.6353 323.719 40.4511L319.558 33.2449C319.399 32.9685 319.493 32.6184 319.769 32.4596C320.046 32.3007 320.396 32.3951 320.557 32.6714L324.716 39.8777C324.875 40.154 324.781 40.5041 324.507 40.6653C324.417 40.7183 324.316 40.7436 324.219 40.7413L324.219 40.739Z" fill="white" fill-opacity="0.2"/>
<path fill-rule="evenodd" clip-rule="evenodd" d="M325.649 31.8448C325.578 31.8448 325.506 31.8471 325.433 31.8471C323.864 31.8955 322.059 32.4666 320.345 33.4569C318.632 34.4449 317.234 35.7254 316.41 37.0588C315.652 38.2817 315.477 39.3802 315.924 40.1517C316.896 41.8352 320.562 41.6118 323.934 39.6681C325.645 38.6801 327.045 37.3996 327.869 36.0662C328.627 34.8433 328.8 33.7448 328.355 32.9733C327.932 32.2432 326.976 31.8448 325.649 31.8448ZM318.646 42.434C316.946 42.434 315.583 41.8651 314.924 40.7275C314.259 39.5737 314.436 38.0537 315.429 36.4531C316.352 34.9608 317.895 33.5445 319.767 32.4621C321.642 31.3797 323.641 30.7533 325.396 30.7003C327.277 30.6404 328.682 31.2461 329.35 32.3999C330.018 33.5537 329.836 35.0737 328.846 36.6742C327.92 38.1665 326.379 39.5829 324.507 40.6653C322.464 41.8444 320.38 42.434 318.646 42.434Z" fill="white" fill-opacity="0.2"/>
<path fill-rule="evenodd" clip-rule="evenodd" d="M303.46 33.9175C302.481 33.9175 301.514 34.1754 300.646 34.6775C299.338 35.4328 298.403 36.6512 298.011 38.1089C297.622 39.5668 297.822 41.089 298.575 42.3971C300.135 45.0962 303.596 46.0243 306.295 44.4652C307.603 43.7098 308.536 42.4915 308.928 41.0337C309.319 39.5759 309.119 38.0536 308.363 36.7456C307.61 35.4374 306.39 34.5025 304.932 34.1133C304.446 33.982 303.951 33.9175 303.458 33.9175L303.46 33.9175ZM303.481 46.372C301.127 46.372 298.836 45.1515 297.576 42.9728C296.668 41.3999 296.427 39.5668 296.896 37.8119C297.366 36.057 298.492 34.59 300.065 33.6803C301.638 32.7706 303.474 32.5311 305.229 33.001C306.984 33.4708 308.45 34.5969 309.36 36.1699C310.268 37.7428 310.509 39.576 310.04 41.3309C309.57 43.0857 308.444 44.5527 306.871 45.4624C305.802 46.0796 304.635 46.372 303.481 46.372Z" fill="white" fill-opacity="0.2"/>
<path fill-rule="evenodd" clip-rule="evenodd" d="M298.078 43.2606C297.88 43.2606 297.685 43.1569 297.579 42.9727C297.42 42.6963 297.514 42.3463 297.79 42.1851L308.575 35.9581C308.852 35.7992 309.202 35.8936 309.363 36.17C309.522 36.4463 309.427 36.7964 309.151 36.9553L298.366 43.1823C298.276 43.2352 298.177 43.2606 298.081 43.2606L298.078 43.2606Z" fill="white" fill-opacity="0.2"/>
<path fill-rule="evenodd" clip-rule="evenodd" d="M290.128 59.6027C290.078 59.6027 290.029 59.5958 289.978 59.582C289.672 59.5014 289.49 59.1836 289.571 58.8773L292.618 47.5005C292.698 47.1942 293.014 47.0122 293.322 47.0928C293.629 47.1757 293.811 47.4912 293.73 47.7975L290.683 59.1744C290.614 59.43 290.381 59.6004 290.126 59.6004L290.128 59.6027Z" fill="white" fill-opacity="0.2"/>
<path fill-rule="evenodd" clip-rule="evenodd" d="M278.337 49.7711C277.971 51.1345 278.162 52.567 278.873 53.799C279.585 55.0311 280.73 55.9132 282.093 56.277L298.463 60.6619C299.828 61.0281 301.256 60.837 302.491 60.1253C303.723 59.4137 304.605 58.2691 304.971 56.9058C305.729 54.0754 304.043 51.1575 301.215 50.3999L284.845 46.0127C282.015 45.255 279.097 46.9408 278.337 49.7689L278.337 49.7711ZM299.835 61.9975C299.278 61.9975 298.716 61.9238 298.163 61.7764L281.793 57.3893C280.133 56.9448 278.74 55.8739 277.874 54.3746C277.008 52.8754 276.775 51.1343 277.222 49.4739C278.146 46.0309 281.697 43.9813 285.14 44.9025L301.51 49.2896C304.953 50.2131 307.002 53.7643 306.081 57.2075C305.637 58.8679 304.566 60.2613 303.067 61.1271C302.067 61.7052 300.957 62 299.835 62L299.835 61.9975Z" fill="white" fill-opacity="0.2"/>
<path fill-rule="evenodd" clip-rule="evenodd" d="M317.444 49.5406C314.328 49.5406 311.792 52.0762 311.792 55.1921C311.792 58.3081 314.328 60.8437 317.444 60.8437C320.56 60.8437 323.095 58.3081 323.095 55.1921C323.095 52.0762 320.56 49.5406 317.444 49.5406ZM317.444 61.9952C313.692 61.9952 310.641 58.9437 310.641 55.1922C310.641 51.4407 313.692 48.3892 317.444 48.3892C321.195 48.3892 324.247 51.4407 324.247 55.1922C324.247 58.9437 321.195 61.9952 317.444 61.9952Z" fill="white" fill-opacity="0.2"/>
<path fill-rule="evenodd" clip-rule="evenodd" d="M315.936 61.8112C315.615 61.8112 315.36 61.5533 315.36 61.2355V49.1494C315.36 48.8316 315.615 48.5737 315.936 48.5737C316.253 48.5737 316.511 48.8316 316.511 49.1494V61.2355C316.511 61.5533 316.253 61.8112 315.936 61.8112Z" fill="white" fill-opacity="0.2"/>
<path fill-rule="evenodd" clip-rule="evenodd" d="M318.955 61.8112C318.637 61.8112 318.379 61.5533 318.379 61.2355V49.1494C318.379 48.8316 318.637 48.5737 318.955 48.5737C319.272 48.5737 319.53 48.8316 319.53 49.1494V61.2355C319.53 61.5533 319.272 61.8112 318.955 61.8112Z" fill="white" fill-opacity="0.2"/>
<path fill-rule="evenodd" clip-rule="evenodd" d="M310.882 26.9231C310.629 26.9231 310.396 26.7527 310.327 26.4971L307.28 15.1202C307.197 14.8139 307.379 14.4984 307.686 14.4155C307.992 14.3326 308.307 14.5146 308.39 14.8232L311.439 26.2C311.522 26.5063 311.34 26.8218 311.032 26.9047C310.981 26.9185 310.931 26.9254 310.882 26.9254L310.882 26.9231Z" fill="white" fill-opacity="0.2"/>
<path fill-rule="evenodd" clip-rule="evenodd" d="M317.542 13.1514C317.089 13.1514 316.628 13.2113 316.167 13.3333L299.798 17.7205C298.434 18.0867 297.29 18.9664 296.578 20.1985C295.866 21.4306 295.675 22.863 296.041 24.2264C296.677 26.5962 298.828 28.1645 301.175 28.1645C301.629 28.1645 302.089 28.107 302.547 27.9826L318.917 23.5954C320.283 23.2292 321.425 22.3495 322.137 21.1174C322.848 19.8853 323.04 18.4529 322.673 17.0895C322.04 14.7198 319.887 13.1514 317.54 13.1514H317.542ZM301.175 29.3161C298.319 29.3161 295.701 27.4092 294.929 24.5236C294.485 22.8608 294.715 21.1221 295.581 19.6228C296.447 18.1235 297.838 17.0527 299.5 16.6082L315.87 12.221C317.531 11.7765 319.272 12.0068 320.771 12.8728C322.27 13.7387 323.341 15.1297 323.786 16.7924C324.23 18.4529 324 20.1939 323.134 21.6932C322.268 23.1924 320.877 24.2633 319.214 24.7078L302.844 29.095C302.287 29.2447 301.725 29.3161 301.172 29.3161H301.175Z" fill="white" fill-opacity="0.2"/>
<path fill-rule="evenodd" clip-rule="evenodd" d="M286.074 27.0063C282.959 27.0063 280.423 29.5419 280.423 32.6578C280.423 35.7738 282.959 38.3093 286.074 38.3093C289.19 38.3093 291.726 35.7737 291.726 32.6578C291.726 29.5418 289.19 27.0063 286.077 27.0063H286.074ZM286.074 39.4608C282.323 39.4608 279.271 36.4094 279.271 32.6578C279.271 28.9063 282.325 25.8549 286.074 25.8549C289.826 25.8549 292.877 28.9063 292.877 32.6578C292.877 36.4094 289.826 39.4608 286.074 39.4608Z" fill="white" fill-opacity="0.2"/>
<path fill-rule="evenodd" clip-rule="evenodd" d="M284.564 39.2739C284.246 39.2739 283.988 39.016 283.988 38.6982V26.6121C283.988 26.2943 284.246 26.0364 284.564 26.0364C284.882 26.0364 285.14 26.2943 285.14 26.6121V38.6958C285.14 39.0136 284.882 39.2716 284.564 39.2716V39.2739Z" fill="white" fill-opacity="0.2"/>
<path fill-rule="evenodd" clip-rule="evenodd" d="M287.586 39.2739C287.268 39.2739 287.01 39.016 287.01 38.6982V26.6121C287.01 26.2943 287.268 26.0364 287.586 26.0364C287.903 26.0364 288.161 26.2943 288.161 26.6121V38.6958C288.161 39.0136 287.903 39.2716 287.586 39.2716V39.2739Z" fill="white" fill-opacity="0.2"/>
<path fill-rule="evenodd" clip-rule="evenodd" d="M58.2188 121.739C58.0208 121.739 57.8273 121.635 57.7191 121.451L53.5576 114.245C53.3987 113.969 53.4931 113.618 53.7695 113.46C54.0458 113.301 54.3959 113.395 54.5571 113.671L58.7163 120.878C58.8752 121.154 58.7808 121.504 58.5067 121.665C58.4169 121.718 58.3155 121.744 58.2188 121.741L58.2188 121.739Z" fill="white" fill-opacity="0.2"/>
<path fill-rule="evenodd" clip-rule="evenodd" d="M59.6493 112.845C59.5779 112.845 59.5065 112.847 59.4328 112.847C57.8644 112.895 56.0589 113.467 54.3455 114.457C52.6321 115.445 51.2342 116.725 50.4097 118.059C49.652 119.282 49.477 120.38 49.9237 121.152C50.8956 122.835 54.562 122.612 57.9336 120.668C59.6446 119.68 61.0449 118.4 61.8694 117.066C62.6271 115.843 62.7998 114.745 62.3553 113.973C61.9316 113.243 60.9758 112.845 59.6493 112.845ZM52.6458 123.434C50.9462 123.434 49.5829 122.865 48.9242 121.727C48.2586 120.574 48.436 119.054 49.4285 117.453C50.352 115.961 51.895 114.544 53.7674 113.462C55.642 112.38 57.641 111.753 59.3959 111.7C61.2774 111.64 62.6823 112.246 63.3501 113.4C64.018 114.554 63.836 116.074 62.8458 117.674C61.92 119.167 60.3793 120.583 58.5069 121.665C56.4642 122.844 54.38 123.434 52.6458 123.434Z" fill="white" fill-opacity="0.2"/>
<path fill-rule="evenodd" clip-rule="evenodd" d="M37.4601 114.917C36.4813 114.917 35.5141 115.175 34.6459 115.677C33.3378 116.433 32.4028 117.651 32.0113 119.109C31.6221 120.567 31.8224 122.089 32.5755 123.397C34.1346 126.096 37.596 127.024 40.2953 125.465C41.6034 124.71 42.5361 123.491 42.9275 122.034C43.3191 120.576 43.1187 119.054 42.3633 117.746C41.6103 116.437 40.3896 115.502 38.9319 115.113C38.4459 114.982 37.9508 114.918 37.458 114.918L37.4601 114.917ZM37.4809 127.372C35.1272 127.372 32.8357 126.151 31.5758 123.973C30.6684 122.4 30.4266 120.567 30.8964 118.812C31.3662 117.057 32.4924 115.59 34.0653 114.68C35.6383 113.771 37.4737 113.531 39.2286 114.001C40.9835 114.471 42.4505 115.597 43.3602 117.17C44.2676 118.743 44.5094 120.576 44.0395 122.331C43.5697 124.086 42.4436 125.553 40.8706 126.462C39.802 127.08 38.6346 127.372 37.4809 127.372Z" fill="white" fill-opacity="0.2"/>
<path fill-rule="evenodd" clip-rule="evenodd" d="M32.0783 124.261C31.8803 124.261 31.6845 124.157 31.5786 123.973C31.4197 123.696 31.5141 123.346 31.7905 123.185L42.5754 116.958C42.8517 116.799 43.2018 116.894 43.363 117.17C43.5219 117.446 43.4275 117.796 43.1511 117.955L32.3662 124.182C32.2764 124.235 32.1773 124.261 32.0806 124.261L32.0783 124.261Z" fill="white" fill-opacity="0.2"/>
<path fill-rule="evenodd" clip-rule="evenodd" d="M24.1282 140.603C24.0775 140.603 24.0291 140.596 23.9785 140.582C23.6722 140.501 23.4902 140.184 23.5708 139.877L26.6177 128.5C26.6983 128.194 27.0138 128.012 27.3224 128.093C27.6287 128.176 27.8107 128.491 27.7301 128.798L24.6832 140.174C24.6141 140.43 24.3815 140.6 24.1259 140.6L24.1282 140.603Z" fill="white" fill-opacity="0.2"/>
<path fill-rule="evenodd" clip-rule="evenodd" d="M12.3368 130.771C11.9706 132.135 12.1617 133.567 12.8734 134.799C13.585 136.031 14.7296 136.913 16.0929 137.277L32.4628 141.662C33.8284 142.028 35.2563 141.837 36.4907 141.125C37.7228 140.414 38.6048 139.269 38.971 137.906C39.7287 135.075 38.0429 132.158 35.2148 131.4L18.845 127.013C16.0146 126.255 13.0967 127.941 12.3367 130.769L12.3368 130.771ZM33.8352 142.998C33.2779 142.998 32.716 142.924 32.1633 142.776L15.7934 138.389C14.133 137.945 12.7397 136.874 11.8738 135.375C11.0078 133.875 10.7753 132.134 11.222 130.474C12.1455 127.031 15.6967 124.981 19.1399 125.902L35.5097 130.29C38.9527 131.213 41.0023 134.764 40.0812 138.207C39.6367 139.868 38.5658 141.261 37.0665 142.127C36.067 142.705 34.957 143 33.8354 143L33.8352 142.998Z" fill="white" fill-opacity="0.2"/>
<path fill-rule="evenodd" clip-rule="evenodd" d="M51.4436 130.541C48.3276 130.541 45.7921 133.076 45.7921 136.192C45.7921 139.308 48.3277 141.844 51.4436 141.844C54.5596 141.844 57.0951 139.308 57.0951 136.192C57.0951 133.076 54.5595 130.541 51.4436 130.541ZM51.4436 142.995C47.692 142.995 44.6406 139.944 44.6406 136.192C44.6406 132.441 47.6921 129.389 51.4436 129.389C55.1951 129.389 58.2466 132.441 58.2466 136.192C58.2466 139.944 55.1951 142.995 51.4436 142.995Z" fill="white" fill-opacity="0.2"/>
<path fill-rule="evenodd" clip-rule="evenodd" d="M49.9356 142.811C49.6155 142.811 49.3599 142.553 49.3599 142.235V130.149C49.3599 129.832 49.6155 129.574 49.9356 129.574C50.2534 129.574 50.5114 129.832 50.5114 130.149V142.235C50.5114 142.553 50.2534 142.811 49.9356 142.811Z" fill="white" fill-opacity="0.2"/>
<path fill-rule="evenodd" clip-rule="evenodd" d="M52.9547 142.811C52.6368 142.811 52.3789 142.553 52.3789 142.235V130.149C52.3789 129.832 52.6368 129.574 52.9547 129.574C53.2725 129.574 53.5304 129.832 53.5304 130.149V142.235C53.5304 142.553 53.2725 142.811 52.9547 142.811Z" fill="white" fill-opacity="0.2"/>
<path fill-rule="evenodd" clip-rule="evenodd" d="M44.8822 107.923C44.6289 107.923 44.3963 107.753 44.3272 107.497L41.2803 96.1202C41.1974 95.8139 41.3793 95.4984 41.6856 95.4155C41.9919 95.3326 42.3074 95.5146 42.3903 95.8232L45.4395 107.2C45.5224 107.506 45.3405 107.822 45.0319 107.905C44.9812 107.919 44.9305 107.925 44.8822 107.925L44.8822 107.923Z" fill="white" fill-opacity="0.2"/>
<path fill-rule="evenodd" clip-rule="evenodd" d="M51.5423 94.1514C51.0887 94.1514 50.6281 94.2113 50.1675 94.3333L33.7976 98.7205C32.4343 99.0867 31.2897 99.9664 30.5781 101.199C29.8665 102.431 29.6753 103.863 30.0415 105.226C30.6771 107.596 32.8281 109.165 35.1748 109.165C35.6285 109.165 36.0891 109.107 36.5474 108.983L52.9172 104.595C54.2829 104.229 55.4252 103.349 56.1368 102.117C56.8484 100.885 57.0395 99.4529 56.6734 98.0895C56.0401 95.7198 53.8868 94.1514 51.5401 94.1514H51.5423ZM35.1749 110.316C32.3191 110.316 29.7006 108.409 28.929 105.524C28.4845 103.861 28.7148 102.122 29.5808 100.623C30.4467 99.1235 31.8377 98.0527 33.5004 97.6082L49.8703 93.221C51.5307 92.7765 53.2718 93.0068 54.771 93.8728C56.2703 94.7387 57.3412 96.1297 57.7857 97.7924C58.2301 99.4529 57.9998 101.194 57.1339 102.693C56.2679 104.192 54.877 105.263 53.2142 105.708L36.8444 110.095C36.2871 110.245 35.7252 110.316 35.1724 110.316H35.1749Z" fill="white" fill-opacity="0.2"/>
<path fill-rule="evenodd" clip-rule="evenodd" d="M20.0745 108.006C16.9585 108.006 14.423 110.542 14.423 113.658C14.423 116.774 16.9586 119.309 20.0745 119.309C23.1904 119.309 25.726 116.774 25.726 113.658C25.726 110.542 23.1904 108.006 20.0768 108.006H20.0745ZM20.0745 120.461C16.3229 120.461 13.2715 117.409 13.2715 113.658C13.2715 109.906 16.3253 106.855 20.0745 106.855C23.826 106.855 26.8775 109.906 26.8775 113.658C26.8775 117.409 23.826 120.461 20.0745 120.461Z" fill="white" fill-opacity="0.2"/>
<path fill-rule="evenodd" clip-rule="evenodd" d="M18.564 120.274C18.2462 120.274 17.9883 120.016 17.9883 119.698V107.612C17.9883 107.294 18.2462 107.036 18.564 107.036C18.8818 107.036 19.1398 107.294 19.1398 107.612V119.696C19.1398 120.014 18.8818 120.272 18.564 120.272V120.274Z" fill="white" fill-opacity="0.2"/>
<path fill-rule="evenodd" clip-rule="evenodd" d="M21.5855 120.274C21.2677 120.274 21.0098 120.016 21.0098 119.698V107.612C21.0098 107.294 21.2677 107.036 21.5855 107.036C21.9033 107.036 22.1613 107.294 22.1613 107.612V119.696C22.1613 120.014 21.9033 120.272 21.5855 120.272V120.274Z" fill="white" fill-opacity="0.2"/>
<path fill-rule="evenodd" clip-rule="evenodd" d="M190.219 121.739C190.021 121.739 189.827 121.635 189.719 121.451L185.558 114.245C185.399 113.969 185.493 113.618 185.769 113.46C186.046 113.301 186.396 113.395 186.557 113.671L190.716 120.878C190.875 121.154 190.781 121.504 190.507 121.665C190.417 121.718 190.316 121.744 190.219 121.741L190.219 121.739Z" fill="white" fill-opacity="0.2"/>
<path fill-rule="evenodd" clip-rule="evenodd" d="M191.649 112.845C191.578 112.845 191.506 112.847 191.433 112.847C189.864 112.895 188.059 113.467 186.345 114.457C184.632 115.445 183.234 116.725 182.41 118.059C181.652 119.282 181.477 120.38 181.924 121.152C182.896 122.835 186.562 122.612 189.934 120.668C191.645 119.68 193.045 118.4 193.869 117.066C194.627 115.843 194.8 114.745 194.355 113.973C193.932 113.243 192.976 112.845 191.649 112.845ZM184.646 123.434C182.946 123.434 181.583 122.865 180.924 121.727C180.259 120.574 180.436 119.054 181.429 117.453C182.352 115.961 183.895 114.544 185.767 113.462C187.642 112.38 189.641 111.753 191.396 111.7C193.277 111.64 194.682 112.246 195.35 113.4C196.018 114.554 195.836 116.074 194.846 117.674C193.92 119.167 192.379 120.583 190.507 121.665C188.464 122.844 186.38 123.434 184.646 123.434Z" fill="white" fill-opacity="0.2"/>
<path fill-rule="evenodd" clip-rule="evenodd" d="M169.46 114.917C168.481 114.917 167.514 115.175 166.646 115.677C165.338 116.433 164.403 117.651 164.011 119.109C163.622 120.567 163.822 122.089 164.575 123.397C166.135 126.096 169.596 127.024 172.295 125.465C173.603 124.71 174.536 123.491 174.928 122.034C175.319 120.576 175.119 119.054 174.363 117.746C173.61 116.437 172.39 115.502 170.932 115.113C170.446 114.982 169.951 114.918 169.458 114.918L169.46 114.917ZM169.481 127.372C167.127 127.372 164.836 126.151 163.576 123.973C162.668 122.4 162.427 120.567 162.896 118.812C163.366 117.057 164.492 115.59 166.065 114.68C167.638 113.771 169.474 113.531 171.229 114.001C172.984 114.471 174.45 115.597 175.36 117.17C176.268 118.743 176.509 120.576 176.04 122.331C175.57 124.086 174.444 125.553 172.871 126.462C171.802 127.08 170.635 127.372 169.481 127.372Z" fill="white" fill-opacity="0.2"/>
<path fill-rule="evenodd" clip-rule="evenodd" d="M164.078 124.261C163.88 124.261 163.685 124.157 163.579 123.973C163.42 123.696 163.514 123.346 163.79 123.185L174.575 116.958C174.852 116.799 175.202 116.894 175.363 117.17C175.522 117.446 175.427 117.796 175.151 117.955L164.366 124.182C164.276 124.235 164.177 124.261 164.081 124.261L164.078 124.261Z" fill="white" fill-opacity="0.2"/>
<path fill-rule="evenodd" clip-rule="evenodd" d="M156.128 140.603C156.078 140.603 156.029 140.596 155.978 140.582C155.672 140.501 155.49 140.184 155.571 139.877L158.618 128.5C158.698 128.194 159.014 128.012 159.322 128.093C159.629 128.176 159.811 128.491 159.73 128.798L156.683 140.174C156.614 140.43 156.381 140.6 156.126 140.6L156.128 140.603Z" fill="white" fill-opacity="0.2"/>
<path fill-rule="evenodd" clip-rule="evenodd" d="M144.337 130.771C143.971 132.135 144.162 133.567 144.873 134.799C145.585 136.031 146.73 136.913 148.093 137.277L164.463 141.662C165.828 142.028 167.256 141.837 168.491 141.125C169.723 140.414 170.605 139.269 170.971 137.906C171.729 135.075 170.043 132.158 167.215 131.4L150.845 127.013C148.015 126.255 145.097 127.941 144.337 130.769L144.337 130.771ZM165.835 142.998C165.278 142.998 164.716 142.924 164.163 142.776L147.793 138.389C146.133 137.945 144.74 136.874 143.874 135.375C143.008 133.875 142.775 132.134 143.222 130.474C144.146 127.031 147.697 124.981 151.14 125.902L167.51 130.29C170.953 131.213 173.002 134.764 172.081 138.207C171.637 139.868 170.566 141.261 169.067 142.127C168.067 142.705 166.957 143 165.835 143L165.835 142.998Z" fill="white" fill-opacity="0.2"/>
<path fill-rule="evenodd" clip-rule="evenodd" d="M183.444 130.541C180.328 130.541 177.792 133.076 177.792 136.192C177.792 139.308 180.328 141.844 183.444 141.844C186.56 141.844 189.095 139.308 189.095 136.192C189.095 133.076 186.56 130.541 183.444 130.541ZM183.444 142.995C179.692 142.995 176.641 139.944 176.641 136.192C176.641 132.441 179.692 129.389 183.444 129.389C187.195 129.389 190.247 132.441 190.247 136.192C190.247 139.944 187.195 142.995 183.444 142.995Z" fill="white" fill-opacity="0.2"/>
<path fill-rule="evenodd" clip-rule="evenodd" d="M181.936 142.811C181.615 142.811 181.36 142.553 181.36 142.235V130.149C181.36 129.832 181.615 129.574 181.936 129.574C182.253 129.574 182.511 129.832 182.511 130.149V142.235C182.511 142.553 182.253 142.811 181.936 142.811Z" fill="white" fill-opacity="0.2"/>
<path fill-rule="evenodd" clip-rule="evenodd" d="M184.955 142.811C184.637 142.811 184.379 142.553 184.379 142.235V130.149C184.379 129.832 184.637 129.574 184.955 129.574C185.272 129.574 185.53 129.832 185.53 130.149V142.235C185.53 142.553 185.272 142.811 184.955 142.811Z" fill="white" fill-opacity="0.2"/>
<path fill-rule="evenodd" clip-rule="evenodd" d="M176.882 107.923C176.629 107.923 176.396 107.753 176.327 107.497L173.28 96.1202C173.197 95.8139 173.379 95.4984 173.686 95.4155C173.992 95.3326 174.307 95.5146 174.39 95.8232L177.439 107.2C177.522 107.506 177.34 107.822 177.032 107.905C176.981 107.919 176.931 107.925 176.882 107.925L176.882 107.923Z" fill="white" fill-opacity="0.2"/>
<path fill-rule="evenodd" clip-rule="evenodd" d="M183.542 94.1514C183.089 94.1514 182.628 94.2113 182.167 94.3333L165.798 98.7205C164.434 99.0867 163.29 99.9664 162.578 101.199C161.866 102.431 161.675 103.863 162.041 105.226C162.677 107.596 164.828 109.165 167.175 109.165C167.629 109.165 168.089 109.107 168.547 108.983L184.917 104.595C186.283 104.229 187.425 103.349 188.137 102.117C188.848 100.885 189.04 99.4529 188.673 98.0895C188.04 95.7198 185.887 94.1514 183.54 94.1514H183.542ZM167.175 110.316C164.319 110.316 161.701 108.409 160.929 105.524C160.485 103.861 160.715 102.122 161.581 100.623C162.447 99.1235 163.838 98.0527 165.5 97.6082L181.87 93.221C183.531 92.7765 185.272 93.0068 186.771 93.8728C188.27 94.7387 189.341 96.1297 189.786 97.7924C190.23 99.4529 190 101.194 189.134 102.693C188.268 104.192 186.877 105.263 185.214 105.708L168.844 110.095C168.287 110.245 167.725 110.316 167.172 110.316H167.175Z" fill="white" fill-opacity="0.2"/>
<path fill-rule="evenodd" clip-rule="evenodd" d="M152.074 108.006C148.959 108.006 146.423 110.542 146.423 113.658C146.423 116.774 148.959 119.309 152.074 119.309C155.19 119.309 157.726 116.774 157.726 113.658C157.726 110.542 155.19 108.006 152.077 108.006H152.074ZM152.074 120.461C148.323 120.461 145.271 117.409 145.271 113.658C145.271 109.906 148.325 106.855 152.074 106.855C155.826 106.855 158.877 109.906 158.877 113.658C158.877 117.409 155.826 120.461 152.074 120.461Z" fill="white" fill-opacity="0.2"/>
<path fill-rule="evenodd" clip-rule="evenodd" d="M150.564 120.274C150.246 120.274 149.988 120.016 149.988 119.698V107.612C149.988 107.294 150.246 107.036 150.564 107.036C150.882 107.036 151.14 107.294 151.14 107.612V119.696C151.14 120.014 150.882 120.272 150.564 120.272V120.274Z" fill="white" fill-opacity="0.2"/>
<path fill-rule="evenodd" clip-rule="evenodd" d="M153.586 120.274C153.268 120.274 153.01 120.016 153.01 119.698V107.612C153.01 107.294 153.268 107.036 153.586 107.036C153.903 107.036 154.161 107.294 154.161 107.612V119.696C154.161 120.014 153.903 120.272 153.586 120.272V120.274Z" fill="white" fill-opacity="0.2"/>
<path fill-rule="evenodd" clip-rule="evenodd" d="M324.219 121.739C324.021 121.739 323.827 121.635 323.719 121.451L319.558 114.245C319.399 113.969 319.493 113.618 319.769 113.46C320.046 113.301 320.396 113.395 320.557 113.671L324.716 120.878C324.875 121.154 324.781 121.504 324.507 121.665C324.417 121.718 324.316 121.744 324.219 121.741L324.219 121.739Z" fill="white" fill-opacity="0.2"/>
<path fill-rule="evenodd" clip-rule="evenodd" d="M325.649 112.845C325.578 112.845 325.506 112.847 325.433 112.847C323.864 112.895 322.059 113.467 320.345 114.457C318.632 115.445 317.234 116.725 316.41 118.059C315.652 119.282 315.477 120.38 315.924 121.152C316.896 122.835 320.562 122.612 323.934 120.668C325.645 119.68 327.045 118.4 327.869 117.066C328.627 115.843 328.8 114.745 328.355 113.973C327.932 113.243 326.976 112.845 325.649 112.845ZM318.646 123.434C316.946 123.434 315.583 122.865 314.924 121.727C314.259 120.574 314.436 119.054 315.429 117.453C316.352 115.961 317.895 114.544 319.767 113.462C321.642 112.38 323.641 111.753 325.396 111.7C327.277 111.64 328.682 112.246 329.35 113.4C330.018 114.554 329.836 116.074 328.846 117.674C327.92 119.167 326.379 120.583 324.507 121.665C322.464 122.844 320.38 123.434 318.646 123.434Z" fill="white" fill-opacity="0.2"/>
<path fill-rule="evenodd" clip-rule="evenodd" d="M303.46 114.917C302.481 114.917 301.514 115.175 300.646 115.677C299.338 116.433 298.403 117.651 298.011 119.109C297.622 120.567 297.822 122.089 298.575 123.397C300.135 126.096 303.596 127.024 306.295 125.465C307.603 124.71 308.536 123.491 308.928 122.034C309.319 120.576 309.119 119.054 308.363 117.746C307.61 116.437 306.39 115.502 304.932 115.113C304.446 114.982 303.951 114.918 303.458 114.918L303.46 114.917ZM303.481 127.372C301.127 127.372 298.836 126.151 297.576 123.973C296.668 122.4 296.427 120.567 296.896 118.812C297.366 117.057 298.492 115.59 300.065 114.68C301.638 113.771 303.474 113.531 305.229 114.001C306.984 114.471 308.45 115.597 309.36 117.17C310.268 118.743 310.509 120.576 310.04 122.331C309.57 124.086 308.444 125.553 306.871 126.462C305.802 127.08 304.635 127.372 303.481 127.372Z" fill="white" fill-opacity="0.2"/>
<path fill-rule="evenodd" clip-rule="evenodd" d="M298.078 124.261C297.88 124.261 297.685 124.157 297.579 123.973C297.42 123.696 297.514 123.346 297.79 123.185L308.575 116.958C308.852 116.799 309.202 116.894 309.363 117.17C309.522 117.446 309.427 117.796 309.151 117.955L298.366 124.182C298.276 124.235 298.177 124.261 298.081 124.261L298.078 124.261Z" fill="white" fill-opacity="0.2"/>
<path fill-rule="evenodd" clip-rule="evenodd" d="M290.128 140.603C290.078 140.603 290.029 140.596 289.978 140.582C289.672 140.501 289.49 140.184 289.571 139.877L292.618 128.5C292.698 128.194 293.014 128.012 293.322 128.093C293.629 128.176 293.811 128.491 293.73 128.798L290.683 140.174C290.614 140.43 290.381 140.6 290.126 140.6L290.128 140.603Z" fill="white" fill-opacity="0.2"/>
<path fill-rule="evenodd" clip-rule="evenodd" d="M278.337 130.771C277.971 132.135 278.162 133.567 278.873 134.799C279.585 136.031 280.73 136.913 282.093 137.277L298.463 141.662C299.828 142.028 301.256 141.837 302.491 141.125C303.723 140.414 304.605 139.269 304.971 137.906C305.729 135.075 304.043 132.158 301.215 131.4L284.845 127.013C282.015 126.255 279.097 127.941 278.337 130.769L278.337 130.771ZM299.835 142.998C299.278 142.998 298.716 142.924 298.163 142.776L281.793 138.389C280.133 137.945 278.74 136.874 277.874 135.375C277.008 133.875 276.775 132.134 277.222 130.474C278.146 127.031 281.697 124.981 285.14 125.902L301.51 130.29C304.953 131.213 307.002 134.764 306.081 138.207C305.637 139.868 304.566 141.261 303.067 142.127C302.067 142.705 300.957 143 299.835 143L299.835 142.998Z" fill="white" fill-opacity="0.2"/>
<path fill-rule="evenodd" clip-rule="evenodd" d="M317.444 130.541C314.328 130.541 311.792 133.076 311.792 136.192C311.792 139.308 314.328 141.844 317.444 141.844C320.56 141.844 323.095 139.308 323.095 136.192C323.095 133.076 320.56 130.541 317.444 130.541ZM317.444 142.995C313.692 142.995 310.641 139.944 310.641 136.192C310.641 132.441 313.692 129.389 317.444 129.389C321.195 129.389 324.247 132.441 324.247 136.192C324.247 139.944 321.195 142.995 317.444 142.995Z" fill="white" fill-opacity="0.2"/>
<path fill-rule="evenodd" clip-rule="evenodd" d="M315.936 142.811C315.615 142.811 315.36 142.553 315.36 142.235V130.149C315.36 129.832 315.615 129.574 315.936 129.574C316.253 129.574 316.511 129.832 316.511 130.149V142.235C316.511 142.553 316.253 142.811 315.936 142.811Z" fill="white" fill-opacity="0.2"/>
<path fill-rule="evenodd" clip-rule="evenodd" d="M318.955 142.811C318.637 142.811 318.379 142.553 318.379 142.235V130.149C318.379 129.832 318.637 129.574 318.955 129.574C319.272 129.574 319.53 129.832 319.53 130.149V142.235C319.53 142.553 319.272 142.811 318.955 142.811Z" fill="white" fill-opacity="0.2"/>
<path fill-rule="evenodd" clip-rule="evenodd" d="M310.882 107.923C310.629 107.923 310.396 107.753 310.327 107.497L307.28 96.1202C307.197 95.8139 307.379 95.4984 307.686 95.4155C307.992 95.3326 308.307 95.5146 308.39 95.8232L311.439 107.2C311.522 107.506 311.34 107.822 311.032 107.905C310.981 107.919 310.931 107.925 310.882 107.925L310.882 107.923Z" fill="white" fill-opacity="0.2"/>
<path fill-rule="evenodd" clip-rule="evenodd" d="M317.542 94.1514C317.089 94.1514 316.628 94.2113 316.167 94.3333L299.798 98.7205C298.434 99.0867 297.29 99.9664 296.578 101.199C295.866 102.431 295.675 103.863 296.041 105.226C296.677 107.596 298.828 109.165 301.175 109.165C301.629 109.165 302.089 109.107 302.547 108.983L318.917 104.595C320.283 104.229 321.425 103.349 322.137 102.117C322.848 100.885 323.04 99.4529 322.673 98.0895C322.04 95.7198 319.887 94.1514 317.54 94.1514H317.542ZM301.175 110.316C298.319 110.316 295.701 108.409 294.929 105.524C294.485 103.861 294.715 102.122 295.581 100.623C296.447 99.1235 297.838 98.0527 299.5 97.6082L315.87 93.221C317.531 92.7765 319.272 93.0068 320.771 93.8728C322.27 94.7387 323.341 96.1297 323.786 97.7924C324.23 99.4529 324 101.194 323.134 102.693C322.268 104.192 320.877 105.263 319.214 105.708L302.844 110.095C302.287 110.245 301.725 110.316 301.172 110.316H301.175Z" fill="white" fill-opacity="0.2"/>
<path fill-rule="evenodd" clip-rule="evenodd" d="M286.074 108.006C282.959 108.006 280.423 110.542 280.423 113.658C280.423 116.774 282.959 119.309 286.074 119.309C289.19 119.309 291.726 116.774 291.726 113.658C291.726 110.542 289.19 108.006 286.077 108.006H286.074ZM286.074 120.461C282.323 120.461 279.271 117.409 279.271 113.658C279.271 109.906 282.325 106.855 286.074 106.855C289.826 106.855 292.877 109.906 292.877 113.658C292.877 117.409 289.826 120.461 286.074 120.461Z" fill="white" fill-opacity="0.2"/>
<path fill-rule="evenodd" clip-rule="evenodd" d="M284.564 120.274C284.246 120.274 283.988 120.016 283.988 119.698V107.612C283.988 107.294 284.246 107.036 284.564 107.036C284.882 107.036 285.14 107.294 285.14 107.612V119.696C285.14 120.014 284.882 120.272 284.564 120.272V120.274Z" fill="white" fill-opacity="0.2"/>
<path fill-rule="evenodd" clip-rule="evenodd" d="M287.586 120.274C287.268 120.274 287.01 120.016 287.01 119.698V107.612C287.01 107.294 287.268 107.036 287.586 107.036C287.903 107.036 288.161 107.294 288.161 107.612V119.696C288.161 120.014 287.903 120.272 287.586 120.272V120.274Z" fill="white" fill-opacity="0.2"/>
<path fill-rule="evenodd" clip-rule="evenodd" d="M257.219 82.739C257.021 82.739 256.827 82.6353 256.719 82.4511L252.558 75.2449C252.399 74.9685 252.493 74.6184 252.769 74.4596C253.046 74.3007 253.396 74.3951 253.557 74.6714L257.716 81.8777C257.875 82.154 257.781 82.5041 257.507 82.6653C257.417 82.7183 257.316 82.7436 257.219 82.7413L257.219 82.739Z" fill="white" fill-opacity="0.2"/>
<path fill-rule="evenodd" clip-rule="evenodd" d="M258.649 73.8448C258.578 73.8448 258.506 73.8471 258.433 73.8471C256.864 73.8955 255.059 74.4666 253.345 75.4569C251.632 76.4449 250.234 77.7254 249.41 79.0588C248.652 80.2817 248.477 81.3802 248.924 82.1517C249.896 83.8352 253.562 83.6118 256.934 81.6681C258.645 80.6801 260.045 79.3996 260.869 78.0662C261.627 76.8433 261.8 75.7448 261.355 74.9733C260.932 74.2432 259.976 73.8448 258.649 73.8448ZM251.646 84.434C249.946 84.434 248.583 83.8651 247.924 82.7275C247.259 81.5737 247.436 80.0537 248.429 78.4531C249.352 76.9608 250.895 75.5445 252.767 74.4621C254.642 73.3797 256.641 72.7533 258.396 72.7003C260.277 72.6404 261.682 73.2461 262.35 74.3999C263.018 75.5537 262.836 77.0737 261.846 78.6742C260.92 80.1665 259.379 81.5829 257.507 82.6653C255.464 83.8444 253.38 84.434 251.646 84.434Z" fill="white" fill-opacity="0.2"/>
<path fill-rule="evenodd" clip-rule="evenodd" d="M236.46 75.9175C235.481 75.9175 234.514 76.1754 233.646 76.6775C232.338 77.4328 231.403 78.6512 231.011 80.1089C230.622 81.5668 230.822 83.089 231.575 84.3971C233.135 87.0962 236.596 88.0243 239.295 86.4652C240.603 85.7098 241.536 84.4915 241.928 83.0337C242.319 81.5759 242.119 80.0536 241.363 78.7456C240.61 77.4374 239.39 76.5025 237.932 76.1133C237.446 75.982 236.951 75.9175 236.458 75.9175L236.46 75.9175ZM236.481 88.372C234.127 88.372 231.836 87.1515 230.576 84.9728C229.668 83.3999 229.427 81.5668 229.896 79.8119C230.366 78.057 231.492 76.59 233.065 75.6803C234.638 74.7706 236.474 74.5311 238.229 75.001C239.984 75.4708 241.45 76.5969 242.36 78.1699C243.268 79.7428 243.509 81.576 243.04 83.3309C242.57 85.0857 241.444 86.5527 239.871 87.4624C238.802 88.0796 237.635 88.372 236.481 88.372Z" fill="white" fill-opacity="0.2"/>
<path fill-rule="evenodd" clip-rule="evenodd" d="M231.078 85.2606C230.88 85.2606 230.685 85.1569 230.579 84.9727C230.42 84.6963 230.514 84.3463 230.79 84.1851L241.575 77.9581C241.852 77.7992 242.202 77.8936 242.363 78.17C242.522 78.4463 242.427 78.7964 242.151 78.9553L231.366 85.1823C231.276 85.2352 231.177 85.2606 231.081 85.2606L231.078 85.2606Z" fill="white" fill-opacity="0.2"/>
<path fill-rule="evenodd" clip-rule="evenodd" d="M223.128 101.603C223.078 101.603 223.029 101.596 222.978 101.582C222.672 101.501 222.49 101.184 222.571 100.877L225.618 89.5005C225.698 89.1942 226.014 89.0122 226.322 89.0928C226.629 89.1757 226.811 89.4912 226.73 89.7975L223.683 101.174C223.614 101.43 223.381 101.6 223.126 101.6L223.128 101.603Z" fill="white" fill-opacity="0.2"/>
<path fill-rule="evenodd" clip-rule="evenodd" d="M211.337 91.7711C210.971 93.1345 211.162 94.567 211.873 95.799C212.585 97.0311 213.73 97.9132 215.093 98.277L231.463 102.662C232.828 103.028 234.256 102.837 235.491 102.125C236.723 101.414 237.605 100.269 237.971 98.9058C238.729 96.0754 237.043 93.1575 234.215 92.3999L217.845 88.0127C215.015 87.255 212.097 88.9408 211.337 91.7689L211.337 91.7711ZM232.835 103.998C232.278 103.998 231.716 103.924 231.163 103.776L214.793 99.3893C213.133 98.9448 211.74 97.8739 210.874 96.3746C210.008 94.8754 209.775 93.1343 210.222 91.4739C211.146 88.0309 214.697 85.9813 218.14 86.9025L234.51 91.2896C237.953 92.2131 240.002 95.7643 239.081 99.2075C238.637 100.868 237.566 102.261 236.067 103.127C235.067 103.705 233.957 104 232.835 104L232.835 103.998Z" fill="white" fill-opacity="0.2"/>
<path fill-rule="evenodd" clip-rule="evenodd" d="M250.444 91.5406C247.328 91.5406 244.792 94.0762 244.792 97.1921C244.792 100.308 247.328 102.844 250.444 102.844C253.56 102.844 256.095 100.308 256.095 97.1921C256.095 94.0762 253.56 91.5406 250.444 91.5406ZM250.444 103.995C246.692 103.995 243.641 100.944 243.641 97.1922C243.641 93.4407 246.692 90.3892 250.444 90.3892C254.195 90.3892 257.247 93.4407 257.247 97.1922C257.247 100.944 254.195 103.995 250.444 103.995Z" fill="white" fill-opacity="0.2"/>
<path fill-rule="evenodd" clip-rule="evenodd" d="M248.936 103.811C248.615 103.811 248.36 103.553 248.36 103.235V91.1494C248.36 90.8316 248.615 90.5737 248.936 90.5737C249.253 90.5737 249.511 90.8316 249.511 91.1494V103.235C249.511 103.553 249.253 103.811 248.936 103.811Z" fill="white" fill-opacity="0.2"/>
<path fill-rule="evenodd" clip-rule="evenodd" d="M251.955 103.811C251.637 103.811 251.379 103.553 251.379 103.235V91.1494C251.379 90.8316 251.637 90.5737 251.955 90.5737C252.272 90.5737 252.53 90.8316 252.53 91.1494V103.235C252.53 103.553 252.272 103.811 251.955 103.811Z" fill="white" fill-opacity="0.2"/>
<path fill-rule="evenodd" clip-rule="evenodd" d="M243.882 68.9231C243.629 68.9231 243.396 68.7527 243.327 68.4971L240.28 57.1202C240.197 56.8139 240.379 56.4984 240.686 56.4155C240.992 56.3326 241.307 56.5146 241.39 56.8232L244.439 68.2C244.522 68.5063 244.34 68.8218 244.032 68.9047C243.981 68.9185 243.931 68.9254 243.882 68.9254L243.882 68.9231Z" fill="white" fill-opacity="0.2"/>
<path fill-rule="evenodd" clip-rule="evenodd" d="M250.542 55.1514C250.089 55.1514 249.628 55.2113 249.167 55.3333L232.798 59.7205C231.434 60.0867 230.29 60.9664 229.578 62.1985C228.866 63.4306 228.675 64.863 229.041 66.2264C229.677 68.5962 231.828 70.1645 234.175 70.1645C234.629 70.1645 235.089 70.107 235.547 69.9826L251.917 65.5954C253.283 65.2292 254.425 64.3495 255.137 63.1174C255.848 61.8853 256.04 60.4529 255.673 59.0895C255.04 56.7198 252.887 55.1514 250.54 55.1514H250.542ZM234.175 71.3161C231.319 71.3161 228.701 69.4092 227.929 66.5236C227.485 64.8608 227.715 63.1221 228.581 61.6228C229.447 60.1235 230.838 59.0527 232.5 58.6082L248.87 54.221C250.531 53.7765 252.272 54.0068 253.771 54.8728C255.27 55.7387 256.341 57.1297 256.786 58.7924C257.23 60.4529 257 62.1939 256.134 63.6932C255.268 65.1924 253.877 66.2633 252.214 66.7078L235.844 71.095C235.287 71.2447 234.725 71.3161 234.172 71.3161H234.175Z" fill="white" fill-opacity="0.2"/>
<path fill-rule="evenodd" clip-rule="evenodd" d="M219.074 69.0063C215.959 69.0063 213.423 71.5419 213.423 74.6578C213.423 77.7738 215.959 80.3093 219.074 80.3093C222.19 80.3093 224.726 77.7737 224.726 74.6578C224.726 71.5418 222.19 69.0063 219.077 69.0063H219.074ZM219.074 81.4608C215.323 81.4608 212.271 78.4094 212.271 74.6578C212.271 70.9063 215.325 67.8549 219.074 67.8549C222.826 67.8549 225.877 70.9063 225.877 74.6578C225.877 78.4094 222.826 81.4608 219.074 81.4608Z" fill="white" fill-opacity="0.2"/>
<path fill-rule="evenodd" clip-rule="evenodd" d="M217.564 81.2739C217.246 81.2739 216.988 81.016 216.988 80.6982V68.6121C216.988 68.2943 217.246 68.0364 217.564 68.0364C217.882 68.0364 218.14 68.2943 218.14 68.6121V80.6958C218.14 81.0136 217.882 81.2716 217.564 81.2716V81.2739Z" fill="white" fill-opacity="0.2"/>
<path fill-rule="evenodd" clip-rule="evenodd" d="M220.586 81.2739C220.268 81.2739 220.01 81.016 220.01 80.6982V68.6121C220.01 68.2943 220.268 68.0364 220.586 68.0364C220.903 68.0364 221.161 68.2943 221.161 68.6121V80.6958C221.161 81.0136 220.903 81.2716 220.586 81.2716V81.2739Z" fill="white" fill-opacity="0.2"/>
<path d="M256.657 5.02831L250.394 11.0221L249.421 9.99383L255.684 4L256.657 5.02831Z" fill="white" fill-opacity="0.2"/>
<path d="M249.95 9.53063L250.885 10.5126C251.209 10.8554 251.367 11.3001 251.358 11.7355C251.348 12.1801 251.172 12.6156 250.83 12.9491L249.607 14.1163L249.097 14.6073L248.606 14.0885L246.262 11.6428L245.771 11.1333L246.29 10.6423L247.513 9.47505C247.856 9.15081 248.301 8.99332 248.736 9.00258C249.181 9.00258 249.625 9.1786 249.95 9.53063ZM249.857 11.4853L248.921 10.5034C248.866 10.4478 248.792 10.4107 248.708 10.4107C248.625 10.4107 248.551 10.4385 248.486 10.4941L247.773 11.1704L249.134 12.5878L249.848 11.9115C249.903 11.8559 249.94 11.7818 249.94 11.6984C249.95 11.6243 249.922 11.5409 249.857 11.4853Z" fill="white" fill-opacity="0.2"/>
<path d="M247.439 10.8183L249.487 12.9583C250.163 13.6623 250.487 14.5795 250.469 15.4966C250.45 16.4138 250.079 17.3124 249.375 17.9887L236.072 30.7082C235.368 31.3845 234.451 31.7087 233.534 31.6902C232.617 31.6716 231.718 31.3011 231.042 30.597L229.004 28.4663L228.994 28.457C228.318 27.753 227.994 26.8358 228.012 25.9187C228.031 25.0108 228.392 24.1122 229.096 23.4359L229.106 23.4266L242.39 10.7256L242.4 10.7164C243.104 10.0401 244.021 9.71587 244.938 9.73439C245.846 9.75292 246.744 10.1142 247.421 10.8183H247.439ZM248.458 13.9403L246.42 11.8095L246.411 11.8003C246.003 11.3741 245.466 11.1518 244.919 11.1425C244.373 11.1333 243.826 11.3185 243.4 11.7262L243.391 11.7354L230.097 24.4272L230.088 24.4364C229.661 24.844 229.439 25.3814 229.43 25.9279C229.421 26.4745 229.606 27.0211 230.014 27.4472L230.023 27.4565L232.07 29.5965C232.478 30.0226 233.015 30.245 233.562 30.2542C234.108 30.2635 234.664 30.069 235.09 29.6613L248.393 16.9603C248.82 16.5527 249.042 16.0154 249.051 15.4688C249.06 14.913 248.866 14.3664 248.458 13.9403Z" fill="white" fill-opacity="0.2"/>
<path d="M231.023 29.5409L227.845 32.5703L226.873 31.542L230.041 28.5126L231.023 29.5409Z" fill="white" fill-opacity="0.2"/>
<path d="M224.223 28.4478C223.954 28.1606 223.5 28.1513 223.223 28.42C222.935 28.6887 222.926 29.1426 223.195 29.4205L229.782 36.313C230.05 36.6001 230.504 36.6094 230.782 36.3407C231.06 36.0721 231.078 35.6182 230.81 35.3402L224.223 28.4478Z" fill="white" fill-opacity="0.2"/>
<path d="M237.424 16.4416L243.418 22.6948L242.399 23.6768L236.396 17.4236L237.424 16.4416Z" fill="white" fill-opacity="0.2"/>
<path d="M254.657 121.028L248.394 127.022L247.421 125.994L253.684 120L254.657 121.028Z" fill="white" fill-opacity="0.2"/>
<path d="M247.95 125.531L248.885 126.513C249.209 126.855 249.367 127.3 249.358 127.735C249.348 128.18 249.172 128.616 248.83 128.949L247.607 130.116L247.097 130.607L246.606 130.089L244.262 127.643L243.771 127.133L244.29 126.642L245.513 125.475C245.856 125.151 246.301 124.993 246.736 125.003C247.181 125.003 247.625 125.179 247.95 125.531ZM247.857 127.485L246.921 126.503C246.866 126.448 246.792 126.411 246.708 126.411C246.625 126.411 246.551 126.439 246.486 126.494L245.773 127.17L247.134 128.588L247.848 127.911C247.903 127.856 247.94 127.782 247.94 127.698C247.95 127.624 247.922 127.541 247.857 127.485Z" fill="white" fill-opacity="0.2"/>
<path d="M245.439 126.818L247.487 128.958C248.163 129.662 248.487 130.579 248.469 131.497C248.45 132.414 248.079 133.312 247.375 133.989L234.072 146.708C233.368 147.384 232.451 147.709 231.534 147.69C230.617 147.672 229.718 147.301 229.042 146.597L227.004 144.466L226.994 144.457C226.318 143.753 225.994 142.836 226.012 141.919C226.031 141.011 226.392 140.112 227.096 139.436L227.106 139.427L240.39 126.726L240.4 126.716C241.104 126.04 242.021 125.716 242.938 125.734C243.846 125.753 244.744 126.114 245.421 126.818H245.439ZM246.458 129.94L244.42 127.81L244.411 127.8C244.003 127.374 243.466 127.152 242.919 127.143C242.373 127.133 241.826 127.319 241.4 127.726L241.391 127.735L228.097 140.427L228.088 140.436C227.661 140.844 227.439 141.381 227.43 141.928C227.421 142.475 227.606 143.021 228.014 143.447L228.023 143.457L230.07 145.596C230.478 146.023 231.015 146.245 231.562 146.254C232.108 146.264 232.664 146.069 233.09 145.661L246.393 132.96C246.82 132.553 247.042 132.015 247.051 131.469C247.06 130.913 246.866 130.366 246.458 129.94Z" fill="white" fill-opacity="0.2"/>
<path d="M229.023 145.541L225.845 148.57L224.873 147.542L228.041 144.513L229.023 145.541Z" fill="white" fill-opacity="0.2"/>
<path d="M222.223 144.448C221.954 144.161 221.5 144.151 221.223 144.42C220.935 144.689 220.926 145.143 221.195 145.421L227.782 152.313C228.05 152.6 228.504 152.609 228.782 152.341C229.06 152.072 229.078 151.618 228.81 151.34L222.223 144.448Z" fill="white" fill-opacity="0.2"/>
<path d="M235.424 132.442L241.418 138.695L240.399 139.677L234.396 133.424L235.424 132.442Z" fill="white" fill-opacity="0.2"/>
<path d="M119.657 119.028L113.394 125.022L112.421 123.994L118.684 118L119.657 119.028Z" fill="white" fill-opacity="0.2"/>
<path d="M112.95 123.531L113.885 124.513C114.209 124.855 114.367 125.3 114.358 125.735C114.348 126.18 114.172 126.616 113.83 126.949L112.607 128.116L112.097 128.607L111.606 128.089L109.262 125.643L108.771 125.133L109.29 124.642L110.513 123.475C110.856 123.151 111.301 122.993 111.736 123.003C112.181 123.003 112.625 123.179 112.95 123.531ZM112.857 125.485L111.921 124.503C111.866 124.448 111.792 124.411 111.708 124.411C111.625 124.411 111.551 124.439 111.486 124.494L110.773 125.17L112.134 126.588L112.848 125.911C112.903 125.856 112.94 125.782 112.94 125.698C112.95 125.624 112.922 125.541 112.857 125.485Z" fill="white" fill-opacity="0.2"/>
<path d="M110.439 124.818L112.487 126.958C113.163 127.662 113.487 128.579 113.469 129.497C113.45 130.414 113.079 131.312 112.375 131.989L99.0722 144.708C98.3681 145.384 97.451 145.709 96.5338 145.69C95.6167 145.672 94.7181 145.301 94.0418 144.597L92.0037 142.466L91.9945 142.457C91.3182 141.753 90.9939 140.836 91.0125 139.919C91.031 139.011 91.3923 138.112 92.0964 137.436L92.1056 137.427L105.39 124.726L105.4 124.716C106.104 124.04 107.021 123.716 107.938 123.734C108.846 123.753 109.744 124.114 110.421 124.818H110.439ZM111.458 127.94L109.42 125.81L109.411 125.8C109.003 125.374 108.466 125.152 107.919 125.143C107.373 125.133 106.826 125.319 106.4 125.726L106.391 125.735L93.0969 138.427L93.0876 138.436C92.6615 138.844 92.4391 139.381 92.4299 139.928C92.4206 140.475 92.6059 141.021 93.0135 141.447L93.0228 141.457L95.0701 143.596C95.4777 144.023 96.0151 144.245 96.5616 144.254C97.1082 144.264 97.664 144.069 98.0902 143.661L111.393 130.96C111.82 130.553 112.042 130.015 112.051 129.469C112.06 128.913 111.866 128.366 111.458 127.94Z" fill="white" fill-opacity="0.2"/>
<path d="M94.0228 143.541L90.8453 146.57L89.8726 145.542L93.0409 142.513L94.0228 143.541Z" fill="white" fill-opacity="0.2"/>
<path d="M87.2231 142.448C86.9544 142.161 86.5005 142.151 86.2226 142.42C85.9354 142.689 85.9261 143.143 86.1948 143.421L92.7815 150.313C93.0502 150.6 93.5041 150.609 93.782 150.341C94.0599 150.072 94.0785 149.618 93.8098 149.34L87.2231 142.448Z" fill="white" fill-opacity="0.2"/>
<path d="M100.424 130.442L106.418 136.695L105.399 137.677L99.396 131.424L100.424 130.442Z" fill="white" fill-opacity="0.2"/>
<path d="M124.657 4.02831L118.394 10.0221L117.421 8.99383L123.684 3L124.657 4.02831Z" fill="white" fill-opacity="0.2"/>
<path d="M117.95 8.53063L118.885 9.51262C119.209 9.85539 119.367 10.3001 119.358 10.7355C119.348 11.1801 119.172 11.6156 118.83 11.9491L117.607 13.1163L117.097 13.6073L116.606 13.0885L114.262 10.6428L113.771 10.1333L114.29 9.64232L115.513 8.47505C115.856 8.15081 116.301 7.99332 116.736 8.00258C117.181 8.00258 117.625 8.1786 117.95 8.53063ZM117.857 10.4853L116.921 9.50336C116.866 9.44777 116.792 9.41072 116.708 9.41072C116.625 9.41072 116.551 9.43851 116.486 9.49409L115.773 10.1704L117.134 11.5878L117.848 10.9115C117.903 10.8559 117.94 10.7818 117.94 10.6984C117.95 10.6243 117.922 10.5409 117.857 10.4853Z" fill="white" fill-opacity="0.2"/>
<path d="M115.439 9.81829L117.487 11.9583C118.163 12.6623 118.487 13.5795 118.469 14.4966C118.45 15.4138 118.079 16.3124 117.375 16.9887L104.072 29.7082C103.368 30.3845 102.451 30.7087 101.534 30.6902C100.617 30.6716 99.7181 30.3011 99.0418 29.597L97.0037 27.4663L96.9945 27.457C96.3182 26.753 95.9939 25.8358 96.0125 24.9187C96.031 24.0108 96.3923 23.1122 97.0964 22.4359L97.1056 22.4266L110.39 9.72565L110.4 9.71638C111.104 9.04011 112.021 8.71587 112.938 8.73439C113.846 8.75292 114.744 9.11422 115.421 9.81829H115.439ZM116.458 12.9403L114.42 10.8095L114.411 10.8003C114.003 10.3741 113.466 10.1518 112.919 10.1425C112.373 10.1333 111.826 10.3185 111.4 10.7262L111.391 10.7354L98.0969 23.4272L98.0876 23.4364C97.6615 23.844 97.4391 24.3814 97.4299 24.9279C97.4206 25.4745 97.6059 26.0211 98.0135 26.4472L98.0228 26.4565L100.07 28.5965C100.478 29.0226 101.015 29.245 101.562 29.2542C102.108 29.2635 102.664 29.069 103.09 28.6613L116.393 15.9603C116.82 15.5527 117.042 15.0154 117.051 14.4688C117.06 13.913 116.866 13.3664 116.458 12.9403Z" fill="white" fill-opacity="0.2"/>
<path d="M99.0228 28.5409L95.8453 31.5703L94.8726 30.542L98.0409 27.5126L99.0228 28.5409Z" fill="white" fill-opacity="0.2"/>
<path d="M92.2231 27.4478C91.9544 27.1606 91.5005 27.1513 91.2226 27.42C90.9354 27.6887 90.9261 28.1426 91.1948 28.4205L97.7815 35.313C98.0502 35.6001 98.5041 35.6094 98.782 35.3407C99.0599 35.0721 99.0785 34.6182 98.8098 34.3402L92.2231 27.4478Z" fill="white" fill-opacity="0.2"/>
<path d="M105.424 15.4416L111.418 21.6948L110.399 22.6768L104.396 16.4236L105.424 15.4416Z" fill="white" fill-opacity="0.2"/>
</svg>
