<svg width="252" height="270" viewBox="0 0 252 270" fill="none" xmlns="http://www.w3.org/2000/svg">
<path d="M119.734 268.8C182.225 268.8 232.888 218.137 232.888 155.422C232.888 92.7076 182.225 42.0449 119.734 42.0449C57.2423 42.0449 6.57959 92.7076 6.57959 155.422C6.57959 218.137 57.2423 268.8 119.734 268.8Z" fill="#F1F3F9" stroke="#D6DCE8" stroke-width="2" stroke-miterlimit="10"/>
<path d="M36.4859 81.9946H197.401C203.874 81.9946 208.784 86.9047 208.784 93.377V195.372C208.784 201.844 203.874 206.754 197.401 206.754H36.4859C30.0136 206.754 25.1035 201.844 25.1035 195.372V93.377C25.1035 86.9047 30.4599 81.9946 36.4859 81.9946Z" fill="#F1F3F9" stroke="#D6DCE8" stroke-width="2" stroke-miterlimit="10"/>
<path d="M211.908 147.387V197.603C211.908 204.076 206.775 209.432 200.079 209.432H34.7003C28.228 209.432 22.8716 204.076 22.8716 197.603V143.146" stroke="#1676EE" stroke-width="3" stroke-linecap="round" stroke-linejoin="round"/>
<path d="M197.848 119.266H145.623C140.49 119.266 135.58 121.052 131.786 124.176L118.171 135.335C114.377 138.46 109.467 140.245 104.334 140.245H45.4135C39.3876 140.245 34.4775 145.155 34.4775 151.181C34.4775 151.628 34.4775 152.297 34.7007 152.744L45.6367 210.325C46.5295 215.682 50.9931 219.699 56.5727 219.699H182.672C188.028 219.699 192.715 215.905 193.608 210.548L208.784 131.764C209.9 125.738 205.883 120.382 199.857 119.266C198.964 119.266 198.294 119.266 197.848 119.266Z" fill="white"/>
<path d="M221.282 103.866H153.434C146.739 103.866 140.49 106.098 135.357 110.339L117.502 124.846C112.592 128.863 106.119 131.318 99.4239 131.318H22.6487C14.8373 131.318 8.58813 137.79 8.58813 145.378C8.58813 146.048 8.58813 146.718 8.81132 147.387L22.8719 222.6C23.9878 229.742 30.0138 234.875 36.9325 234.875H201.196C208.338 234.875 214.14 229.965 215.256 222.823L235.12 119.935C236.459 112.124 231.326 105.205 223.514 103.643C222.845 103.866 221.952 103.866 221.282 103.866Z" fill="white" stroke="#D6DCE8" stroke-width="2" stroke-miterlimit="10"/>
<path d="M90.0506 181.758C94.0679 181.758 97.4157 178.41 97.4157 174.393C97.4157 170.376 94.0679 167.028 90.0506 167.028C86.0333 167.028 82.6855 170.376 82.6855 174.393C82.6855 178.41 86.0333 181.758 90.0506 181.758Z" fill="#AAB2C5"/>
<path d="M147.408 181.534C151.425 181.534 154.773 178.187 154.773 174.169C154.773 170.152 151.425 166.804 147.408 166.804C143.391 166.804 140.043 170.152 140.043 174.169C140.043 178.41 143.391 181.534 147.408 181.534Z" fill="#AAB2C5"/>
<path d="M232.219 229.742C231.326 233.536 229.987 237.554 228.424 240.901C224.184 249.159 217.488 255.631 209.231 259.872C200.75 264.112 190.706 265.898 180.663 263.666C157.006 258.756 141.829 235.545 146.739 211.887C151.649 188.23 174.637 172.83 198.295 177.963C206.776 179.749 214.141 183.989 220.39 189.792C230.879 200.282 235.343 215.458 232.219 229.742Z" fill="#D6DCE8" stroke="#AAB2C5" stroke-width="2" stroke-miterlimit="10"/>
<path d="M203.428 217.021H193.385V206.977C193.385 204.969 191.822 203.183 189.591 203.183C187.582 203.183 185.796 204.745 185.796 206.977V217.021H175.753C173.744 217.021 171.959 218.583 171.959 220.815C171.959 223.046 173.521 224.609 175.753 224.609H185.796V234.652C185.796 236.661 187.359 238.446 189.591 238.446C191.599 238.446 193.385 236.884 193.385 234.652V224.609H203.428C205.437 224.609 207.222 223.046 207.222 220.815C207.222 218.583 205.437 217.021 203.428 217.021Z" fill="white" stroke="#AAB2C5" stroke-width="2" stroke-miterlimit="10"/>
<path d="M109.691 128.863C101.656 113.24 99.8704 94.4927 105.227 77.5308C110.36 60.5688 122.635 46.0619 137.812 37.8041C142.499 35.349 147.855 33.3404 153.211 33.1172C158.568 32.894 164.371 34.6795 167.941 39.1432C171.512 43.1605 172.182 49.856 169.281 54.3196C166.156 58.5601 159.907 60.3456 154.774 59.0065C146.516 57.4442 139.82 50.9719 137.812 43.1605C135.803 35.349 138.481 26.1985 144.73 21.0653C148.748 17.4943 154.327 15.4857 159.46 13.9234C184.457 6.55833 211.685 5.6656 237.128 11.2452" stroke="#D6DCE8" stroke-width="2" stroke-miterlimit="10" stroke-dasharray="4 4"/>
<path d="M125.76 189.569H111.923V192.917H125.76V189.569Z" fill="#AAB2C5"/>
<path d="M250.519 5.44238C250.296 8.79013 250.073 11.9147 247.618 12.5843C245.163 13.2538 244.047 11.022 242.485 7.8974C240.922 4.99601 241.815 1.87144 244.493 1.20189C246.948 0.532335 250.966 1.42507 250.519 5.44238Z" fill="#F1F3F9" stroke="#D6DCE8" stroke-width="2" stroke-miterlimit="10"/>
<path d="M247.841 21.5117C248.511 17.4944 249.18 15.2626 246.948 14.1466C244.493 13.0307 242.931 15.0394 240.253 17.7176C238.021 20.1726 239.36 23.7435 241.592 24.8595C244.27 26.1986 247.172 24.8595 247.841 21.5117Z" fill="#F1F3F9" stroke="#D6DCE8" stroke-width="2" stroke-miterlimit="10"/>
<path d="M250.965 14.1468C250.742 15.7091 249.626 16.825 248.064 17.0482C247.394 17.0482 246.725 17.0482 245.832 17.0482C242.707 16.6018 240.252 14.5931 240.476 12.5845C240.699 10.5758 243.6 9.45992 247.171 9.90629C247.841 9.90629 248.51 10.1295 248.956 10.3527C250.296 10.799 251.188 12.3613 250.965 14.1468C250.965 14.1468 250.965 13.9236 250.965 14.1468Z" fill="#F1F3F9"/>
<path d="M250.965 14.1468C250.742 15.7091 249.626 16.825 248.064 17.0482C247.394 17.0482 246.725 17.0482 245.832 17.0482C242.707 16.6018 240.252 14.5931 240.476 12.5845C240.699 10.5758 243.6 9.45992 247.171 9.90629C247.841 9.90629 248.51 10.1295 248.956 10.3527C250.296 10.799 251.188 12.3613 250.965 14.1468ZM250.965 14.1468C250.965 13.9236 250.965 14.1468 250.965 14.1468Z" stroke="#D6DCE8" stroke-width="2" stroke-miterlimit="10"/>
<path d="M1.89258 76.8614C1.89258 73.0673 1.89258 69.2732 4.57078 68.1573C7.47217 67.0414 9.03446 69.7196 11.2663 73.5137C13.2749 76.8614 12.3822 80.4324 9.48082 81.5483C7.0258 82.6642 1.89258 81.9947 1.89258 76.8614Z" fill="#F1F3F9" stroke="#D6DCE8" stroke-width="2" stroke-miterlimit="10"/>
<path d="M3.4553 58.114C3.00894 62.8008 2.33939 65.479 5.24077 66.595C8.14216 67.7109 9.70445 65.2559 12.6058 61.6849C14.8377 58.5604 13.2754 54.543 10.374 53.4271C7.47261 52.3112 3.90167 54.3199 3.4553 58.114Z" fill="#F1F3F9" stroke="#D6DCE8" stroke-width="2" stroke-miterlimit="10"/>
<path d="M1 67.0415C1 65.256 2.3391 63.9169 3.90139 63.6938C4.57094 63.4706 5.46368 63.4706 6.35641 63.6938C9.92735 63.9169 13.0519 65.9256 12.8287 68.1574C12.6056 70.3893 9.70417 71.9516 5.91004 71.5052C5.24049 71.5052 4.57094 71.282 3.90139 71.0588C2.11592 70.8356 1 69.0502 1 67.0415Z" fill="#F1F3F9" stroke="#D6DCE8" stroke-width="2" stroke-miterlimit="10"/>
<path d="M16.176 67.7109C39.6103 67.7109 82.908 81.3252 83.5775 131.318" stroke="#D6DCE8" stroke-width="2" stroke-miterlimit="10" stroke-dasharray="4 4"/>
</svg>
