<svg width="327" height="96" viewBox="0 0 327 96" fill="none" xmlns="http://www.w3.org/2000/svg">
<path d="M48.3438 23.8282C48.3438 10.6682 59.012 0 72.1719 0V0C85.3318 0 96.0001 10.6682 96.0001 23.8282V96H48.3438V23.8282Z" fill="white"/>
<path d="M23.8282 96C10.6682 96 0 85.3318 0 72.1718V72.1718C0 59.0119 10.6682 48.3437 23.8282 48.3437L96 48.3437V96H23.8282Z" fill="white"/>
<rect x="48.3438" y="96" width="47.6563" height="47.6563" transform="rotate(-90 48.3438 96)" fill="#1F2B5B"/>
<rect x="67.1313" y="57.9666" width="9.85203" height="28.4105" fill="white"/>
<rect x="57.9666" y="76.9833" width="9.85203" height="28.4105" transform="rotate(-90 57.9666 76.9833)" fill="white"/>
<path d="M142.844 0V41H133.531V23.6658H117.314V41H108V0H117.314V17.1373H133.531V0H142.844ZM162.641 7.3164V16.884H175.187V23.919H162.641V33.6836H179.022V41H153.327V0H179.022V7.3164H162.641ZM208.565 25.326L204.867 14.0981C204.593 13.3853 204.301 12.5504 203.991 11.5937C203.68 10.6182 203.37 9.5676 203.059 8.442C202.785 9.58636 202.493 10.6463 202.183 11.6218C201.872 12.5973 201.58 13.4415 201.306 14.1544L197.635 25.326H208.565ZM223.275 41H216.098C215.295 41 214.647 40.8124 214.153 40.4372C213.66 40.0432 213.286 39.5461 213.03 38.9458L210.675 31.7982H195.499L193.143 38.9458C192.942 39.4711 192.577 39.9494 192.047 40.3809C191.536 40.7936 190.897 41 190.13 41H182.898L198.348 0H207.826L223.275 41ZM253.213 33.4022V41H229.162V0H238.421V33.4022H253.213ZM284.712 7.54152H273.48V41H264.222V7.54152H252.99V0H284.712V7.54152ZM327 0V41H317.686V23.6658H301.469V41H292.156V0H301.469V17.1373H317.686V0H327Z" fill="white"/>
<path d="M127.472 74.7703H141.659V91.7045C139.614 93.2098 137.432 94.302 135.113 94.9812C132.813 95.6604 130.402 96 127.883 96C124.596 96 121.602 95.486 118.9 94.458C116.216 93.4117 113.915 91.9799 111.998 90.1625C110.081 88.3268 108.602 86.1607 107.561 83.6642C106.52 81.1493 106 78.4233 106 75.4862C106 72.4941 106.493 69.7497 107.479 67.2532C108.465 64.7383 109.871 62.5722 111.697 60.7549C113.541 58.9375 115.759 57.5241 118.352 56.5144C120.963 55.5048 123.875 55 127.089 55C128.75 55 130.311 55.1377 131.772 55.413C133.233 55.6884 134.575 56.0647 135.798 56.542C137.039 57.0193 138.171 57.5883 139.194 58.2492C140.216 58.91 141.129 59.6259 141.933 60.3969L139.249 64.4997C138.829 65.1422 138.281 65.5368 137.605 65.6837C136.948 65.8305 136.236 65.6653 135.469 65.188C134.739 64.7475 134.045 64.3712 133.388 64.0591C132.749 63.7287 132.091 63.4625 131.416 63.2606C130.74 63.0587 130.028 62.9118 129.28 62.82C128.531 62.7282 127.691 62.6823 126.76 62.6823C125.025 62.6823 123.464 62.9944 122.077 63.6185C120.689 64.2243 119.502 65.0871 118.516 66.2069C117.549 67.3266 116.8 68.6758 116.27 70.2545C115.741 71.8149 115.476 73.5588 115.476 75.4862C115.476 77.6156 115.768 79.5064 116.353 81.1585C116.937 82.8106 117.758 84.2057 118.817 85.3439C119.895 86.482 121.173 87.3539 122.652 87.9597C124.149 88.5471 125.801 88.8408 127.609 88.8408C128.723 88.8408 129.727 88.7307 130.622 88.5104C131.535 88.2901 132.42 87.9964 133.278 87.6293V81.544H129.334C128.75 81.544 128.294 81.388 127.965 81.0759C127.636 80.7638 127.472 80.3691 127.472 79.8919V74.7703ZM167.275 88.2075C168.516 88.2075 169.621 88.0056 170.589 87.6017C171.575 87.1795 172.405 86.5829 173.081 85.812C173.757 85.041 174.268 84.1048 174.615 83.0034C174.98 81.8836 175.162 80.617 175.162 79.2035V55.4406H184.42V79.2035C184.42 81.6633 184.018 83.9212 183.214 85.9772C182.429 88.0331 181.297 89.8046 179.818 91.2915C178.339 92.7784 176.541 93.9348 174.423 94.7609C172.305 95.587 169.922 96 167.275 96C164.609 96 162.217 95.587 160.099 94.7609C157.981 93.9348 156.183 92.7784 154.704 91.2915C153.225 89.8046 152.093 88.0331 151.308 85.9772C150.523 83.9212 150.13 81.6633 150.13 79.2035V55.4406H159.387V79.176C159.387 80.5894 159.561 81.8561 159.907 82.9758C160.273 84.0772 160.793 85.0226 161.469 85.812C162.144 86.5829 162.966 87.1795 163.933 87.6017C164.919 88.0056 166.033 88.2075 167.275 88.2075ZM214.462 80.2223L210.765 69.2357C210.491 68.5382 210.199 67.7213 209.889 66.7851C209.578 65.8305 209.268 64.8026 208.957 63.7011C208.684 64.8209 208.391 65.8581 208.081 66.8126C207.771 67.7672 207.478 68.5932 207.205 69.2908L203.535 80.2223H214.462ZM229.17 95.5594H221.994C221.191 95.5594 220.542 95.3759 220.049 95.0087C219.556 94.6232 219.182 94.1368 218.927 93.5494L216.571 86.5554H201.398L199.043 93.5494C198.842 94.0633 198.477 94.5314 197.948 94.9537C197.436 95.3575 196.797 95.5594 196.03 95.5594H188.8L204.247 55.4406H213.723L229.17 95.5594ZM248.037 74.3022C249.297 74.3022 250.365 74.1462 251.241 73.8341C252.136 73.5037 252.866 73.054 253.432 72.4849C253.998 71.9158 254.409 71.255 254.665 70.5023C254.92 69.7314 255.048 68.9053 255.048 68.0242C255.048 66.2619 254.473 64.8852 253.323 63.8939C252.191 62.9026 250.429 62.407 248.037 62.407H244.312V74.3022H248.037ZM267.701 95.5594H259.32C257.769 95.5594 256.655 94.972 255.979 93.7972L249.351 82.1498C249.041 81.6541 248.694 81.2962 248.311 81.0759C247.927 80.8373 247.379 80.7179 246.667 80.7179H244.312V95.5594H235.055V55.4406H248.037C250.922 55.4406 253.377 55.7435 255.404 56.3492C257.449 56.9366 259.111 57.7627 260.389 58.8274C261.685 59.8921 262.625 61.1495 263.21 62.5997C263.794 64.0499 264.086 65.6286 264.086 67.3358C264.086 68.6391 263.913 69.869 263.566 71.0255C263.219 72.182 262.707 73.2559 262.032 74.2471C261.356 75.2201 260.516 76.092 259.512 76.863C258.526 77.634 257.385 78.2673 256.089 78.7629C256.691 79.075 257.257 79.4697 257.787 79.9469C258.316 80.4059 258.791 80.9566 259.211 81.5991L267.701 95.5594ZM310 75.4862C310 78.3866 309.498 81.0667 308.494 83.5265C307.508 85.968 306.111 88.0882 304.303 89.8872C302.496 91.6678 300.314 93.0629 297.758 94.0725C295.22 95.0638 292.399 95.5594 289.295 95.5594H273.793V55.4406H289.295C292.399 55.4406 295.22 55.9454 297.758 56.955C300.314 57.9646 302.496 59.3597 304.303 61.1404C306.111 62.921 307.508 65.0412 308.494 67.501C309.498 69.9425 310 72.6042 310 75.4862ZM300.524 75.4862C300.524 73.5037 300.268 71.7139 299.757 70.1169C299.246 68.5198 298.506 67.1706 297.539 66.0692C296.589 64.9494 295.421 64.0958 294.033 63.5084C292.645 62.9026 291.066 62.5997 289.295 62.5997H283.105V88.4003H289.295C291.066 88.4003 292.645 88.1066 294.033 87.5191C295.421 86.9134 296.589 86.0598 297.539 84.9584C298.506 83.8386 299.246 82.4802 299.757 80.8831C300.268 79.2861 300.524 77.4871 300.524 75.4862Z" fill="white"/>
</svg>
