<svg width="458" height="144" viewBox="0 0 458 144" fill="none" xmlns="http://www.w3.org/2000/svg">
<path d="M72.5156 35.7422C72.5156 16.0023 88.518 0 108.258 0V0C127.998 0 144 16.0023 144 35.7422V144H72.5156V35.7422Z" fill="#3DBDEC"/>
<path d="M35.7422 144C16.0023 144 0 127.998 0 108.258V108.258C0 88.5179 16.0023 72.5155 35.7422 72.5155L144 72.5155V144H35.7422Z" fill="#3DBDEC"/>
<rect x="72.5156" y="144" width="71.4845" height="71.4845" transform="rotate(-90 72.5156 144)" fill="#1F2B5B"/>
<rect x="100.697" y="86.9499" width="14.778" height="42.6157" fill="#3DBDEC"/>
<rect x="86.95" y="115.475" width="14.778" height="42.6157" transform="rotate(-90 86.95 115.475)" fill="#3DBDEC"/>
<path d="M210.868 12.548V65H198.628V42.824H177.316V65H165.076V12.548H177.316V34.472H198.628V12.548H210.868ZM236.885 21.908V34.148H253.373V43.148H236.885V55.64H258.413V65H224.645V12.548H258.413V21.908H236.885ZM297.238 44.948L292.378 30.584C292.018 29.672 291.634 28.604 291.226 27.38C290.818 26.132 290.41 24.788 290.002 23.348C289.642 24.812 289.258 26.168 288.85 27.416C288.442 28.664 288.058 29.744 287.698 30.656L282.874 44.948H297.238ZM316.57 65H307.138C306.082 65 305.23 64.76 304.582 64.28C303.934 63.776 303.442 63.14 303.106 62.372L300.01 53.228H280.066L276.97 62.372C276.706 63.044 276.226 63.656 275.53 64.208C274.858 64.736 274.018 65 273.01 65H263.506L283.81 12.548H296.266L316.57 65ZM355.914 55.28V65H324.306V12.548H336.474V55.28H355.914ZM397.309 22.196H382.549V65H370.381V22.196H355.621V12.548H397.309V22.196ZM452.884 12.548V65H440.644V42.824H419.332V65H407.092V12.548H419.332V34.472H440.644V12.548H452.884Z" fill="#1F2B5B"/>
<path d="M190.276 108.82H208.924V130.96C206.236 132.928 203.368 134.356 200.32 135.244C197.296 136.132 194.128 136.576 190.816 136.576C186.496 136.576 182.56 135.904 179.008 134.56C175.48 133.192 172.456 131.32 169.936 128.944C167.416 126.544 165.472 123.712 164.104 120.448C162.736 117.16 162.052 113.596 162.052 109.756C162.052 105.844 162.7 102.256 163.996 98.992C165.292 95.704 167.14 92.872 169.54 90.496C171.964 88.12 174.88 86.272 178.288 84.952C181.72 83.632 185.548 82.972 189.772 82.972C191.956 82.972 194.008 83.152 195.928 83.512C197.848 83.872 199.612 84.364 201.22 84.988C202.852 85.612 204.34 86.356 205.684 87.22C207.028 88.084 208.228 89.02 209.284 90.028L205.756 95.392C205.204 96.232 204.484 96.748 203.596 96.94C202.732 97.132 201.796 96.916 200.788 96.292C199.828 95.716 198.916 95.224 198.052 94.816C197.212 94.384 196.348 94.036 195.46 93.772C194.572 93.508 193.636 93.316 192.652 93.196C191.668 93.076 190.564 93.016 189.34 93.016C187.06 93.016 185.008 93.424 183.184 94.24C181.36 95.032 179.8 96.16 178.504 97.624C177.232 99.088 176.248 100.852 175.552 102.916C174.856 104.956 174.508 107.236 174.508 109.756C174.508 112.54 174.892 115.012 175.66 117.172C176.428 119.332 177.508 121.156 178.9 122.644C180.316 124.132 181.996 125.272 183.94 126.064C185.908 126.832 188.08 127.216 190.456 127.216C191.92 127.216 193.24 127.072 194.416 126.784C195.616 126.496 196.78 126.112 197.908 125.632V117.676H192.724C191.956 117.676 191.356 117.472 190.924 117.064C190.492 116.656 190.276 116.14 190.276 115.516V108.82ZM242.595 126.388C244.227 126.388 245.679 126.124 246.951 125.596C248.247 125.044 249.339 124.264 250.227 123.256C251.115 122.248 251.787 121.024 252.243 119.584C252.723 118.12 252.963 116.464 252.963 114.616V83.548H265.131V114.616C265.131 117.832 264.603 120.784 263.547 123.472C262.515 126.16 261.027 128.476 259.083 130.42C257.139 132.364 254.775 133.876 251.991 134.956C249.207 136.036 246.075 136.576 242.595 136.576C239.091 136.576 235.947 136.036 233.163 134.956C230.379 133.876 228.015 132.364 226.071 130.42C224.127 128.476 222.639 126.16 221.607 123.472C220.575 120.784 220.059 117.832 220.059 114.616V83.548H232.227V114.58C232.227 116.428 232.455 118.084 232.911 119.548C233.391 120.988 234.075 122.224 234.963 123.256C235.851 124.264 236.931 125.044 238.203 125.596C239.499 126.124 240.963 126.388 242.595 126.388ZM304.621 115.948L299.761 101.584C299.401 100.672 299.017 99.604 298.609 98.38C298.201 97.132 297.793 95.788 297.385 94.348C297.025 95.812 296.641 97.168 296.233 98.416C295.825 99.664 295.441 100.744 295.081 101.656L290.257 115.948H304.621ZM323.953 136H314.521C313.465 136 312.613 135.76 311.965 135.28C311.317 134.776 310.825 134.14 310.489 133.372L307.393 124.228H287.449L284.353 133.372C284.089 134.044 283.609 134.656 282.913 135.208C282.241 135.736 281.401 136 280.393 136H270.889L291.193 83.548H303.649L323.953 136ZM348.753 108.208C350.409 108.208 351.813 108.004 352.965 107.596C354.141 107.164 355.101 106.576 355.845 105.832C356.589 105.088 357.129 104.224 357.465 103.24C357.801 102.232 357.969 101.152 357.969 100C357.969 97.696 357.213 95.896 355.701 94.6C354.213 93.304 351.897 92.656 348.753 92.656H343.857V108.208H348.753ZM374.601 136H363.585C361.545 136 360.081 135.232 359.193 133.696L350.481 118.468C350.073 117.82 349.617 117.352 349.113 117.064C348.609 116.752 347.889 116.596 346.953 116.596H343.857V136H331.689V83.548H348.753C352.545 83.548 355.773 83.944 358.437 84.736C361.125 85.504 363.309 86.584 364.989 87.976C366.693 89.368 367.929 91.012 368.697 92.908C369.465 94.804 369.849 96.868 369.849 99.1C369.849 100.804 369.621 102.412 369.165 103.924C368.709 105.436 368.037 106.84 367.149 108.136C366.261 109.408 365.157 110.548 363.837 111.556C362.541 112.564 361.041 113.392 359.337 114.04C360.129 114.448 360.873 114.964 361.569 115.588C362.265 116.188 362.889 116.908 363.441 117.748L374.601 136ZM430.201 109.756C430.201 113.548 429.541 117.052 428.221 120.268C426.925 123.46 425.089 126.232 422.713 128.584C420.337 130.912 417.469 132.736 414.109 134.056C410.773 135.352 407.065 136 402.985 136H382.609V83.548H402.985C407.065 83.548 410.773 84.208 414.109 85.528C417.469 86.848 420.337 88.672 422.713 91C425.089 93.328 426.925 96.1 428.221 99.316C429.541 102.508 430.201 105.988 430.201 109.756ZM417.745 109.756C417.745 107.164 417.409 104.824 416.737 102.736C416.065 100.648 415.093 98.884 413.821 97.444C412.573 95.98 411.037 94.864 409.213 94.096C407.389 93.304 405.313 92.908 402.985 92.908H394.849V126.64H402.985C405.313 126.64 407.389 126.256 409.213 125.488C411.037 124.696 412.573 123.58 413.821 122.14C415.093 120.676 416.065 118.9 416.737 116.812C417.409 114.724 417.745 112.372 417.745 109.756Z" fill="#1F2B5B"/>
</svg>
