<svg width="12" height="12" viewBox="0 0 12 12" fill="none" xmlns="http://www.w3.org/2000/svg">
<path d="M4.45505 10.335C4.36005 10.335 4.26505 10.3 4.19005 10.225C4.04505 10.08 4.04505 9.84001 4.19005 9.69501L7.45005 6.43501C7.69005 6.19501 7.69005 5.80501 7.45005 5.56501L4.19005 2.30501C4.04505 2.16001 4.04505 1.92001 4.19005 1.77501C4.33505 1.63001 4.57505 1.63001 4.72005 1.77501L7.98005 5.03501C8.23505 5.29001 8.38005 5.63501 8.38005 6.00001C8.38005 6.36501 8.24005 6.71001 7.98005 6.96501L4.72005 10.225C4.64505 10.295 4.55005 10.335 4.45505 10.335Z" fill="#2B2F3B"/>
</svg>
