<svg width="24" height="24" viewBox="0 0 24 24" fill="none" xmlns="http://www.w3.org/2000/svg">
<path d="M11.9999 21.5999C14.546 21.5999 16.9878 20.5885 18.7881 18.7881C20.5885 16.9878 21.5999 14.546 21.5999 11.9999C21.5999 9.45382 20.5885 7.01203 18.7881 5.21168C16.9878 3.41133 14.546 2.3999 11.9999 2.3999C9.45382 2.3999 7.01203 3.41133 5.21168 5.21168C3.41133 7.01203 2.3999 9.45382 2.3999 11.9999C2.3999 14.546 3.41133 16.9878 5.21168 18.7881C7.01203 20.5885 9.45382 21.5999 11.9999 21.5999V21.5999ZM11.9999 3.5999C12.7883 3.5999 13.6883 4.3079 14.4263 5.8895C14.6867 6.4487 14.9135 7.0919 15.0971 7.7999H8.9027C9.0863 7.0919 9.3131 6.4487 9.5747 5.8895C10.3103 4.3079 11.2103 3.5999 11.9999 3.5999ZM8.4863 5.3819C8.13195 6.15808 7.85734 6.96824 7.6667 7.7999H4.7231C5.73619 6.04895 7.34537 4.72088 9.2567 4.0583C8.9675 4.4543 8.7095 4.9031 8.4863 5.3819ZM7.4303 8.9999C7.275 9.99232 7.19796 10.9954 7.1999 11.9999C7.1999 13.0439 7.2803 14.0543 7.4315 14.9999H4.1519C3.78593 14.0421 3.59884 13.0253 3.5999 11.9999C3.5999 10.9439 3.7955 9.9311 4.1519 8.9999H7.4315H7.4303ZM7.6667 16.1999C7.8779 17.0915 8.1551 17.9063 8.4863 18.6179C8.7095 19.0967 8.9675 19.5455 9.2567 19.9415C7.34537 19.2789 5.73619 17.9509 4.7231 16.1999H7.6679H7.6667ZM8.9027 16.1999H15.0971C14.9318 16.8559 14.7069 17.4953 14.4251 18.1103C13.6895 19.6919 12.7895 20.3999 11.9999 20.3999C11.2115 20.3999 10.3115 19.6919 9.5735 18.1103C9.2926 17.4952 9.06847 16.8558 8.9039 16.1999H8.9027ZM15.3527 14.9999H8.6471C8.48035 14.0087 8.39766 13.0051 8.3999 11.9999C8.3999 10.9403 8.4875 9.9299 8.6471 8.9999H15.3527C15.5123 9.9299 15.5999 10.9403 15.5999 11.9999C15.5999 13.0595 15.5123 14.0699 15.3527 14.9999ZM16.3331 16.1999H19.2767C18.2636 17.9509 16.6544 19.2789 14.7431 19.9415C15.0323 19.5455 15.2903 19.0967 15.5135 18.6179C15.8447 17.9063 16.1219 17.0915 16.3331 16.1999V16.1999ZM19.8491 14.9999H16.5683C16.7195 14.0543 16.7999 13.0439 16.7999 11.9999C16.7999 10.9559 16.7195 9.9455 16.5683 8.9999H19.8479C20.2043 9.9311 20.3999 10.9439 20.3999 11.9999C20.3999 13.0559 20.2043 14.0687 19.8479 14.9999H19.8491ZM14.7431 4.0583C16.6545 4.72079 18.2637 6.04888 19.2767 7.7999H16.3319C16.1412 6.96824 15.8666 6.15809 15.5123 5.3819C15.2986 4.91697 15.0406 4.47372 14.7419 4.0583H14.7431Z" fill="#3DBDEC"/>
</svg>
