<svg width="32" height="32" viewBox="0 0 32 32" fill="none" xmlns="http://www.w3.org/2000/svg">
<path d="M27.5 5.67627C27.5 4.84777 26.8285 4.17627 26 4.17627H6C5.1715 4.17627 4.5 4.84327 4.5 5.66627V20.0713L15.5 30.9998H26C26.8285 30.9998 27.5 30.3328 27.5 29.5098V5.67627Z" fill="#E3FCFD"/>
<path d="M10.5 1H21.5V7H10.5V1Z" fill="#00E1F0"/>
<path d="M17.5 28H19.5C20.0525 28 20.5 27.5525 20.5 27C20.5 26.4475 20.0525 26 19.5 26H17.5C16.9475 26 16.5 26.4475 16.5 27C16.5 27.5525 16.9475 28 17.5 28Z" fill="#003CBF"/>
<path d="M26 3H22.5V1C22.5 0.4475 22.0525 0 21.5 0H10.5C9.9475 0 9.5 0.4475 9.5 1V3H6C4.6195 3 3.5 4.1195 3.5 5.5V9.5C3.5 10.0525 3.9475 10.5 4.5 10.5C5.0525 10.5 5.5 10.0525 5.5 9.5V5.5C5.5 5.224 5.724 5 6 5H9.5V7C9.5 7.5525 9.9475 8 10.5 8H21.5C22.0525 8 22.5 7.5525 22.5 7V5H26C26.276 5 26.5 5.224 26.5 5.5V29.5C26.5 29.776 26.276 30 26 30H16.5V21.5C16.5 20.1195 15.3805 19 14 19H5.5V13.5C5.5 12.9475 5.0525 12.5 4.5 12.5C3.9475 12.5 3.5 12.9475 3.5 13.5V20C3.505 20.264 3.6105 20.516 3.795 20.705L14.795 31.705C14.9815 31.893 15.235 31.999 15.5 32H26C27.3805 32 28.5 30.8805 28.5 29.5V5.5C28.5 4.1195 27.3805 3 26 3ZM20.5 6H11.5V2H20.5V6ZM14 21C14.276 21 14.5 21.224 14.5 21.5V28.585L6.915 21H14Z" fill="#003CBF"/>
<path d="M16 10C15.4475 10 15 10.4475 15 11V12.5H13.5C12.9475 12.5 12.5 12.9475 12.5 13.5C12.5 14.0525 12.9475 14.5 13.5 14.5H15V16C15 16.5525 15.4475 17 16 17C16.5525 17 17 16.5525 17 16V14.5H18.5C19.0525 14.5 19.5 14.0525 19.5 13.5C19.5 12.9475 19.0525 12.5 18.5 12.5H17V11C17 10.4475 16.5525 10 16 10Z" fill="#00E1F0"/>
<path d="M23.5 28C24.0523 28 24.5 27.5523 24.5 27C24.5 26.4477 24.0523 26 23.5 26C22.9477 26 22.5 26.4477 22.5 27C22.5 27.5523 22.9477 28 23.5 28Z" fill="#00E1F0"/>
</svg>
