<svg width="32" height="32" viewBox="0 0 32 32" fill="none" xmlns="http://www.w3.org/2000/svg">
<path d="M14.5696 9.0865H14.0631C12.9446 9.0865 12.0381 8.174 12.0381 7.048V4.5H5.96212V7.048C5.96212 8.174 5.05562 9.0865 3.93712 9.0865H3.43062C2.59162 9.0865 1.91162 9.771 1.91162 10.6155V29.4715C1.91162 30.316 2.59162 31.0005 3.43062 31.0005H14.5691C15.4081 31.0005 16.0881 30.316 16.0881 29.4715V10.6155C16.0881 9.771 15.4081 9.0865 14.5696 9.0865Z" fill="#C8FBFF"/>
<path d="M21.345 25.587L25.5875 21.3445C26.3685 20.5635 27.635 20.5635 28.416 21.3445C29.197 22.1255 29.197 23.392 28.416 24.173L24.1735 28.4155C23.3925 29.1965 22.126 29.1965 21.345 28.4155C20.564 27.6345 20.564 26.368 21.345 25.587Z" fill="#00E1F0"/>
<path d="M5 1.5H13V4.5H5V1.5Z" fill="#00E1F0"/>
<path d="M14.5 8C13.6715 8 13 7.3285 13 6.5V6H13.5C14.0525 6 14.5 5.5525 14.5 5V1C14.5 0.4475 14.0525 0 13.5 0H4.5C3.9475 0 3.5 0.4475 3.5 1V5C3.5 5.5525 3.9475 6 4.5 6H5V6.5C5 7.3285 4.3285 8 3.5 8C2.1195 8 1 9.1195 1 10.5V15.5C1 16.0525 1.4475 16.5 2 16.5C2.5525 16.5 3 16.0525 3 15.5V14H15V26H3V19.5C3 18.9475 2.5525 18.5 2 18.5C1.4475 18.5 1 18.9475 1 19.5V29.5C1 30.8805 2.1195 32 3.5 32H14.5C15.8805 32 17 30.8805 17 29.5V10.5C17 9.1195 15.8805 8 14.5 8ZM5.5 2H12.5V4H5.5V2ZM3 12V10.5C3.05 10.155 3.155 10.05 3.5 10C5.433 10 7 8.433 7 6.5V6H11V6.5C11 8.433 12.567 10 14.5 10C14.776 10 15 10.224 15 10.5V12H3ZM14.5 30H3.5C3.224 30 3 29.776 3 29.5V28H15V29.5C15 29.776 14.776 30 14.5 30Z" fill="#003CBF"/>
<path d="M9 16.5C8.4475 16.5 8 16.9475 8 17.5V19H6.5C5.9475 19 5.5 19.4475 5.5 20C5.5 20.5525 5.9475 21 6.5 21H8V22.5C8 23.0525 8.4475 23.5 9 23.5C9.5525 23.5 10 23.0525 10 22.5V21H11.5C12.0525 21 12.5 20.5525 12.5 20C12.5 19.4475 12.0525 19 11.5 19H10V17.5C10 16.9475 9.5525 16.5 9 16.5Z" fill="#00E1F0"/>
<path d="M22.8798 30.0001C23.6753 29.9996 24.4378 29.6831 24.9998 29.1201L29.2448 24.8801C30.4168 23.7081 30.4168 21.8071 29.2448 20.6351C28.0728 19.4631 26.1718 19.4631 24.9998 20.6351L20.7548 24.8801C19.5838 26.0526 19.5853 27.9521 20.7573 29.1226C21.3203 29.6851 22.0838 30.0006 22.8798 30.0001ZM26.4148 22.0501C26.8053 21.6596 27.4393 21.6596 27.8298 22.0501C28.2203 22.4406 28.2203 23.0746 27.8298 23.4651L26.4148 24.8801L24.9998 23.4651L26.4148 22.0501ZM22.1698 26.2901L23.5848 24.8801L24.9998 26.2951L23.5848 27.7051C23.1943 28.0956 22.5603 28.0956 22.1698 27.7051C21.7793 27.3146 21.7793 26.6806 22.1698 26.2901Z" fill="#003CBF"/>
<path d="M26 30H20C19.4475 30 19 30.4475 19 31C19 31.5525 19.4475 32 20 32H26C26.5525 32 27 31.5525 27 31C27 30.4475 26.5525 30 26 30Z" fill="#003CBF"/>
<path d="M30 30C29.4475 30 29 30.4475 29 31C29 31.5525 29.4475 32 30 32C30.5525 32 31 31.5525 31 31C31 30.4475 30.5525 30 30 30Z" fill="#00E1F0"/>
</svg>
